<svg width="93" height="28" viewBox="0 0 93 28" fill="none" xmlns="http://www.w3.org/2000/svg">
<g clip-path="url(#clip0_116_3297)">
<path d="M86.4389 0H6.56468C6.31228 0 6.06248 0 5.81101 0.00130667C5.60027 0.0028 5.39121 0.00672 5.17861 0.01008C4.71634 0.0155892 4.25515 0.0564004 3.79905 0.13216C3.34352 0.209658 2.90225 0.355721 2.49017 0.565413C2.07846 0.776897 1.70227 1.05176 1.37528 1.38003C1.04669 1.70719 0.77279 2.08537 0.564138 2.50003C0.354863 2.91393 0.209726 3.35745 0.133734 3.81528C0.0571139 4.27252 0.0158847 4.73503 0.010416 5.19867C0.004092 5.41053 0.003348 5.62296 0 5.83483V22.167C0.003348 22.3817 0.004092 22.5895 0.010416 22.8041C0.0158847 23.2678 0.0571139 23.7303 0.133734 24.1875C0.209552 24.6456 0.354696 25.0893 0.564138 25.5033C0.772683 25.9167 1.04662 26.2933 1.37528 26.6187C1.70094 26.9483 2.07724 27.2233 2.4898 27.4331C2.90186 27.6434 3.34308 27.7904 3.79868 27.8691C4.25485 27.9444 4.71599 27.9852 5.17824 27.9912C5.39121 27.9959 5.60027 27.9987 5.81064 27.9987C6.06248 28 6.31191 28 6.56431 28H86.4389C86.6864 28 86.9379 28 87.1853 27.9987C87.3951 27.9987 87.6103 27.9959 87.8201 27.9912C88.2813 27.9855 88.7414 27.9446 89.1965 27.8691C89.6535 27.7899 90.0963 27.6429 90.5104 27.4331C90.9225 27.2231 91.2983 26.9482 91.6236 26.6187C91.9515 26.2921 92.226 25.9157 92.4372 25.5033C92.6451 25.089 92.7888 24.6453 92.8635 24.1875C92.9402 23.7302 92.9829 23.2678 92.9913 22.8041C92.9939 22.5895 92.9939 22.3817 92.9939 22.167C92.9993 21.9162 92.9993 21.6664 92.9993 21.4112V6.58933C92.9993 6.33621 92.9993 6.08533 92.9939 5.83483C92.9939 5.62296 92.9939 5.41053 92.9913 5.19867C92.9829 4.735 92.9402 4.27259 92.8635 3.81528C92.7886 3.35771 92.6449 2.91422 92.4372 2.50003C92.012 1.66893 91.3382 0.992381 90.5102 0.565413C90.0964 0.356299 89.6538 0.210276 89.197 0.13216C88.742 0.0561045 88.2819 0.0152907 87.8206 0.01008C87.6108 0.00672 87.3956 0.0028 87.1858 0.00130667C86.9379 0 86.6864 0 86.4389 0V0Z" fill="#B6B6B6"/>
<path d="M5.81434 27.3953C5.60454 27.3953 5.39994 27.3927 5.1918 27.3878C4.76066 27.3824 4.3305 27.345 3.90487 27.2758C3.50799 27.2072 3.12352 27.0796 2.76413 26.8972C2.40806 26.7163 2.08331 26.4791 1.80232 26.1946C1.51717 25.9137 1.27979 25.5877 1.09962 25.2297C0.917403 24.8694 0.791318 24.4832 0.725755 24.0845C0.65494 23.6563 0.616638 23.2232 0.611179 22.7891C0.606715 22.6433 0.601135 22.1581 0.601135 22.1581V5.83471C0.601135 5.83471 0.607087 5.35703 0.611179 5.21665C0.616401 4.78317 0.654518 4.35072 0.725197 3.92305C0.790941 3.52339 0.917075 3.13614 1.09924 2.77468C1.27878 2.41694 1.51483 2.09072 1.79823 1.80868C2.08125 1.52391 2.40706 1.2855 2.76376 1.10215C3.12232 0.920373 3.50603 0.793646 3.90208 0.726199C4.32913 0.656191 4.7608 0.618317 5.19348 0.612892L5.81472 0.604492H87.1819L87.8106 0.613266C88.2393 0.61825 88.667 0.655689 89.0901 0.725265C89.4902 0.793433 89.8779 0.921019 90.2405 1.10383C90.9552 1.47323 91.5367 2.05798 91.9033 2.77599C92.0826 3.13474 92.2068 3.51863 92.2718 3.91465C92.3433 4.34583 92.3832 4.78168 92.3914 5.21871C92.3934 5.41452 92.3934 5.62471 92.3934 5.83377C92.3988 6.09305 92.3988 6.33964 92.3988 6.58828V21.4096C92.3988 21.6607 92.3988 21.9058 92.3934 22.1527C92.3934 22.3767 92.3934 22.5832 92.3908 22.7951C92.3828 23.2243 92.3434 23.6523 92.2731 24.0758C92.2088 24.4773 92.0833 24.8665 91.9011 25.2297C91.7197 25.5839 91.4837 25.907 91.2019 26.1873C90.9206 26.4732 90.5953 26.7117 90.2384 26.8939C89.8767 27.0776 89.4895 27.2056 89.0899 27.2737C88.6643 27.3433 88.2341 27.3807 87.803 27.3857C87.6013 27.3906 87.39 27.3932 87.1851 27.3932L86.4387 27.3945L5.81434 27.3953Z" fill="black"/>
<path d="M34.5188 18.9015H31.2529L30.4533 21.0933H29.0175L32.2152 12.9058H33.573L36.8444 21.0933H35.3354L34.5188 18.9015ZM31.6639 17.7882H34.1022L33.2293 15.4429C33.1091 15.1194 32.9909 14.7615 32.8746 14.3692C32.7696 14.7161 32.6551 15.0702 32.5311 15.4317L31.6639 17.7882Z" fill="white"/>
<path d="M37.4232 16.4885C37.4232 16.0364 37.4081 15.5392 37.378 14.9967H38.6845C38.7337 15.2525 38.7675 15.511 38.7858 15.7708C39.0134 15.4972 39.2974 15.2762 39.6181 15.123C39.9388 14.9699 40.2888 14.8882 40.644 14.8836C41.0608 14.8768 41.4702 14.9949 41.8198 15.223C42.1694 15.451 42.4432 15.7785 42.6063 16.1636C42.8361 16.6951 42.9448 17.2714 42.9245 17.8505C42.9418 18.4785 42.8176 19.1024 42.5613 19.6757C42.3448 20.1517 41.9907 20.5515 41.5449 20.8229C41.0869 21.0888 40.565 21.2237 40.0359 21.2129C39.6198 21.2123 39.2067 21.1416 38.8139 21.0038V23.5238L37.4232 23.6424V16.4885ZM41.0803 19.6059C41.3638 19.2233 41.5055 18.6648 41.5055 17.9304C41.5055 17.2484 41.3882 16.7539 41.1536 16.4467C41.0461 16.2995 40.9047 16.1808 40.7413 16.1006C40.578 16.0204 40.3977 15.9812 40.216 15.9864C39.954 15.9843 39.696 16.0505 39.4671 16.1785C39.2253 16.3167 39.0052 16.49 38.8139 16.6928V19.9594C38.9681 20.0324 39.1304 20.0864 39.2975 20.1203C39.4769 20.1596 39.66 20.1795 39.8436 20.1799C40.0809 20.1935 40.3179 20.1482 40.5336 20.0479C40.7493 19.9477 40.937 19.7956 41.0801 19.6051L41.0803 19.6059Z" fill="white"/>
<path d="M43.7682 16.4885C43.7682 16.0364 43.7532 15.5391 43.7232 14.9967H45.0306C45.0798 15.2525 45.1137 15.511 45.132 15.7708C45.3596 15.4971 45.6435 15.2762 45.9642 15.123C46.285 14.9699 46.6349 14.8882 46.9901 14.8836C47.407 14.8768 47.8164 14.995 48.166 15.223C48.5156 15.451 48.7895 15.7785 48.9526 16.1635C49.1822 16.6951 49.2909 17.2714 49.2707 17.8505C49.2878 18.4785 49.1637 19.1024 48.9074 19.6757C48.6909 20.1517 48.3368 20.5514 47.8911 20.8229C47.433 21.0888 46.911 21.2237 46.3819 21.2129C45.9658 21.2123 45.5528 21.1416 45.1601 21.0038V23.5238L43.7691 23.6423L43.7682 16.4885ZM47.4255 19.6059C47.709 19.2233 47.8507 18.6648 47.8507 17.9303C47.8507 17.2484 47.7334 16.7539 47.4988 16.4467C47.3913 16.2995 47.2499 16.1808 47.0865 16.1006C46.9232 16.0204 46.7429 15.9812 46.5612 15.9864C46.2992 15.9843 46.0412 16.0505 45.8124 16.1785C45.5705 16.3167 45.3504 16.49 45.1591 16.6927V19.9594C45.3133 20.0324 45.4757 20.0864 45.6427 20.1203C45.8222 20.1596 46.0053 20.1795 46.189 20.1799C46.4263 20.1935 46.6633 20.1481 46.879 20.0479C47.0947 19.9476 47.2824 19.7956 47.4255 19.6051V19.6059Z" fill="white"/>
<path d="M51.8246 20.7068C51.23 20.3799 50.7473 19.8807 50.4395 19.2744C50.1025 18.59 49.9365 17.8335 49.9559 17.0704C49.931 16.2537 50.1236 15.445 50.5139 14.7279C50.8652 14.1052 51.3935 13.6016 52.0313 13.2814C52.7013 12.9524 53.4393 12.7868 54.1851 12.7982C54.6374 12.7962 55.0883 12.8484 55.5283 12.9536C55.9393 13.052 56.3385 13.1951 56.7187 13.3804L56.3638 14.4541C55.7066 14.1201 54.983 13.9386 54.2465 13.9228C53.7269 13.9111 53.2133 14.0368 52.7574 14.2874C52.3262 14.5357 51.9798 14.9089 51.7634 15.3581C51.5135 15.8912 51.392 16.4759 51.4087 17.0648C51.3992 17.5956 51.4918 18.1232 51.6816 18.6188C51.8525 19.0568 52.1533 19.4316 52.5433 19.6925C52.9872 19.9706 53.5041 20.1084 54.027 20.088C54.2987 20.0879 54.5699 20.0653 54.8378 20.0203C55.0968 19.9781 55.3513 19.9119 55.598 19.8224V18.1667H53.711V17.0818H56.9487V20.529C56.4792 20.7488 55.9874 20.9174 55.4819 21.0318C54.9804 21.1473 54.4676 21.206 53.953 21.2069C53.2126 21.2258 52.4798 21.0536 51.8246 20.7068Z" fill="white"/>
<path d="M61.8911 21.0933C61.8387 20.8268 61.8067 20.5567 61.7953 20.2852C61.5624 20.5567 61.2778 20.7788 60.9583 20.9386C60.5982 21.1214 60.1991 21.2134 59.7956 21.2068C59.4661 21.2114 59.1398 21.1412 58.8411 21.0015C58.5569 20.8667 58.3189 20.6504 58.1572 20.3799C57.9802 20.0721 57.8923 19.7208 57.9036 19.3655C57.8935 19.0963 57.9457 18.8283 58.0561 18.5827C58.1665 18.337 58.3321 18.1204 58.54 17.9499C58.9643 17.5978 59.6719 17.4217 60.6628 17.4216C61.0321 17.4215 61.4009 17.4479 61.7665 17.5007V17.382C61.7665 16.8433 61.652 16.4637 61.423 16.2433C61.1505 16.0073 60.7963 15.8886 60.4372 15.9128C60.1158 15.9163 59.7961 15.9602 59.4856 16.0434C59.18 16.1187 58.8821 16.2227 58.5959 16.354L58.3763 15.3369C58.6922 15.202 59.0203 15.0979 59.3561 15.0261C59.7772 14.9302 60.2078 14.8828 60.6395 14.8848C61.0979 14.8723 61.5539 14.9541 61.9797 15.125C62.3538 15.2911 62.6584 15.5828 62.8412 15.9501C63.0691 16.442 63.1754 16.9819 63.1509 17.5239V19.9481C63.1509 20.2006 63.166 20.583 63.1961 21.0954L61.8911 21.0933ZM61.0578 19.9631C61.3264 19.8388 61.5675 19.6621 61.7672 19.4432V18.3137C61.4585 18.2768 61.1481 18.2561 60.8372 18.2515C60.2629 18.2515 59.8661 18.3448 59.6468 18.5315C59.5382 18.6237 59.4521 18.7396 59.395 18.8703C59.3378 19.0011 59.3113 19.1432 59.3172 19.2858C59.3074 19.408 59.3237 19.5309 59.3651 19.6463C59.4065 19.7617 59.472 19.8668 59.5572 19.9547C59.7388 20.1076 59.9715 20.1853 60.2082 20.1721C60.5034 20.168 60.7939 20.0968 61.0578 19.9638V19.9631Z" fill="white"/>
<path d="M64.2195 19.6305V12.4251L65.6046 12.312V19.3815C65.5869 19.5747 65.6334 19.7685 65.7369 19.9325C65.7901 19.9895 65.8555 20.0336 65.9282 20.0615C66.0009 20.0894 66.079 20.1004 66.1565 20.0936C66.2805 20.0876 66.4033 20.0666 66.5224 20.0312L66.6857 21.0316C66.5302 21.0909 66.3689 21.1335 66.2045 21.1587C66.0268 21.1896 65.8469 21.2056 65.6666 21.2067C64.7016 21.2069 64.2192 20.6815 64.2195 19.6305Z" fill="white"/>
<path d="M67.6824 19.6305V12.4251L69.0676 12.312V19.3815C69.0498 19.5747 69.0963 19.7685 69.1998 19.9325C69.2531 19.9895 69.3185 20.0335 69.3912 20.0615C69.4639 20.0894 69.5419 20.1003 69.6194 20.0936C69.7435 20.0876 69.8664 20.0666 69.9855 20.0312L70.1488 21.0316C69.9932 21.0908 69.8319 21.1334 69.6674 21.1587C69.4898 21.1896 69.3098 21.2056 69.1295 21.2067C68.1647 21.2069 67.6823 20.6815 67.6824 19.6305Z" fill="white"/>
<path d="M75.8456 18.2235H71.8704C71.9341 19.5007 72.5404 20.1392 73.6893 20.1392C73.9842 20.1381 74.278 20.103 74.565 20.0347C74.8586 19.9664 75.1459 19.8727 75.4235 19.7547L75.7276 20.7097C75.0117 21.0494 74.2276 21.2195 73.4358 21.207C72.8692 21.2254 72.3074 21.0991 71.8029 20.8398C71.3668 20.6023 71.0169 20.2323 70.8035 19.7829C70.5673 19.2619 70.4528 18.6937 70.4687 18.1216C70.453 17.5218 70.5744 16.9264 70.8236 16.3811C71.0371 15.9208 71.3806 15.5337 71.8116 15.2678C72.2539 15.0063 72.7598 14.8733 73.273 14.8835C73.7828 14.8649 74.2856 15.0062 74.7117 15.2876C75.095 15.5555 75.3923 15.9295 75.5673 16.3641C75.7576 16.836 75.8525 17.3413 75.8463 17.8503L75.8456 18.2235ZM74.4878 17.3363C74.4932 16.9406 74.3641 16.5549 74.1217 16.2428C74.0116 16.1216 73.8764 16.0262 73.7256 15.9632C73.5748 15.9002 73.412 15.8712 73.2488 15.8782C73.0845 15.874 72.9211 15.9045 72.7693 15.9678C72.6175 16.0311 72.4807 16.1257 72.3677 16.2456C72.1057 16.5525 71.9452 16.9337 71.9087 17.3363H74.4878Z" fill="white"/>
<path d="M76.8972 16.5279C76.8972 16.1927 76.8822 15.6825 76.8522 14.9973H78.1529C78.1754 15.1668 78.197 15.3693 78.2177 15.6049C78.2384 15.8404 78.2524 16.0316 78.2599 16.1783C78.4001 15.9407 78.5592 15.7149 78.7357 15.5031C78.8891 15.3222 79.0742 15.1708 79.2818 15.0564C79.5007 14.939 79.7459 14.8797 79.9941 14.8842C80.1804 14.8806 80.3662 14.9034 80.546 14.9521L80.3714 16.1613C80.2252 16.1183 80.0734 16.0974 79.9211 16.0992C79.6168 16.0926 79.318 16.1805 79.0655 16.3508C78.7607 16.5813 78.4962 16.861 78.2828 17.1785V21.0932H76.8976L76.8972 16.5279Z" fill="white"/>
<path d="M81.3268 23.5889C81.157 23.5612 80.9895 23.5207 80.8257 23.4675L81.0791 22.4504C81.1728 22.4765 81.2911 22.5019 81.4338 22.5265C81.5676 22.5505 81.7033 22.563 81.8393 22.5639C82.4549 22.5639 82.9166 22.1664 83.2244 21.3714L83.3146 21.1454L81.0735 14.9966H82.5654L83.6916 18.4324C83.838 18.8746 83.9564 19.3257 84.0463 19.7829C84.1515 19.3422 84.2755 18.9015 84.4183 18.4607L85.5615 14.9966H86.9636L84.728 21.1732C84.5601 21.6709 84.3312 22.1457 84.0465 22.5866C83.829 22.9203 83.5319 23.1942 83.1822 23.3835C82.8082 23.566 82.3958 23.6552 81.9801 23.6434C81.7612 23.6443 81.5426 23.626 81.3268 23.5889Z" fill="white"/>
<path d="M29.0114 5.11084H31.4898L31.4201 5.71172H29.7373V6.8754H31.3241V7.43839H29.7373V8.72751H31.5101L31.4496 9.33343H29.0114V5.11084Z" fill="white"/>
<path d="M33.1992 7.17873L31.8914 5.11084H32.7174L33.6039 6.63049L34.5369 5.11084H35.3389L34.0427 7.15241L35.4457 9.33343H34.6087L33.6061 7.67097L32.5859 9.33343H31.7839L33.1992 7.17873Z" fill="white"/>
<path d="M35.9804 5.11084H37.1139C37.6471 5.11084 38.0549 5.21973 38.3374 5.43751C38.4788 5.54899 38.5912 5.69315 38.6651 5.85769C38.739 6.02222 38.7721 6.20225 38.7617 6.38241C38.7676 6.63997 38.7017 6.89407 38.5714 7.11601C38.4449 7.32472 38.2606 7.49194 38.0409 7.59724C37.7969 7.713 37.5295 7.7705 37.2597 7.76524C37.0743 7.76274 36.8895 7.74318 36.7077 7.70681V9.33343H35.981L35.9804 5.11084ZM37.8032 6.99617C37.8827 6.91958 37.9446 6.82659 37.9848 6.72361C38.0249 6.62064 38.0423 6.51015 38.0357 6.39977C38.0454 6.29366 38.0288 6.18679 37.9875 6.08862C37.9462 5.99045 37.8815 5.90402 37.7989 5.83697C37.5903 5.70857 37.3471 5.64843 37.1029 5.66487H36.7071V7.16399C36.8454 7.18878 36.9852 7.20338 37.1256 7.20767C37.3697 7.22498 37.6114 7.14955 37.8027 6.99636L37.8032 6.99617Z" fill="white"/>
<path d="M39.4796 5.11084H40.2061V8.70996H41.9469L41.8859 9.33343H39.4796V5.11084Z" fill="white"/>
<path d="M43.0514 9.12803C42.7473 8.95553 42.5012 8.69605 42.3446 8.38267C42.1757 8.0357 42.092 7.65321 42.1006 7.26715C42.0914 6.86231 42.1808 6.46133 42.361 6.09899C42.5283 5.7719 42.7894 5.50265 43.1107 5.32601C43.4661 5.13721 43.864 5.0433 44.266 5.05329C44.648 5.04292 45.026 5.13397 45.3617 5.31723C45.6637 5.48905 45.9076 5.74759 46.062 6.05961C46.2289 6.40466 46.3118 6.78456 46.3038 7.16803C46.3138 7.57745 46.2235 7.98306 46.0408 8.34926C45.873 8.67595 45.6119 8.94502 45.291 9.12206C44.9394 9.30953 44.5455 9.40294 44.1475 9.39329C43.7652 9.40339 43.3871 9.31188 43.0514 9.12803ZM44.9346 8.61022C45.1395 8.47147 45.2984 8.27445 45.3909 8.04443C45.4958 7.78272 45.5472 7.50253 45.5421 7.22049C45.5467 6.94431 45.5013 6.66959 45.4084 6.40961C45.326 6.18159 45.1769 5.98386 44.9806 5.84233C44.7574 5.69322 44.4927 5.61916 44.2249 5.63083C43.9588 5.62257 43.6968 5.69752 43.4751 5.84531C43.2695 5.98852 43.1091 6.18793 43.0131 6.41987C42.9082 6.67147 42.8557 6.94198 42.8591 7.2147C42.8545 7.49469 42.9038 7.77295 43.0043 8.03417C43.0931 8.26465 43.248 8.46347 43.4496 8.60537C43.6688 8.75119 43.9279 8.82461 44.1906 8.81537C44.4537 8.82355 44.713 8.75171 44.9346 8.60929V8.61022Z" fill="white"/>
<path d="M47.1138 5.11067H48.4303C48.8158 5.08384 49.1994 5.18534 49.5216 5.39944C49.6447 5.49718 49.7427 5.62318 49.8071 5.76683C49.8716 5.91048 49.9008 6.06757 49.8921 6.22488C49.8964 6.42978 49.8505 6.63259 49.7584 6.8155C49.6776 6.97537 49.5648 7.11681 49.4271 7.23102C49.3052 7.33218 49.1678 7.41298 49.0203 7.47032L50.3141 9.33326H49.4714L48.3757 7.65904H47.8409V9.33326H47.1138V5.11067ZM48.2531 7.108C48.415 7.11132 48.5754 7.0758 48.7209 7.0044C48.8518 6.9395 48.9616 6.83832 49.0371 6.71283C49.1145 6.58087 49.1538 6.42988 49.1505 6.27678C49.1577 6.18868 49.1432 6.10015 49.1083 6.01902C49.0733 5.93789 49.0189 5.86665 48.95 5.8116C48.7755 5.70224 48.5711 5.65072 48.3658 5.66432H47.8398V7.108H48.2531Z" fill="white"/>
<path d="M50.8896 5.11084H53.3686L53.2988 5.71172H51.6161V6.8754H53.2029V7.43839H51.6161V8.72751H53.3889L53.3279 9.33343H50.8896V5.11084Z" fill="white"/>
<path d="M56.0656 5.11084H56.7921V9.33343H56.0656V5.11084Z" fill="white"/>
<path d="M58.7131 5.72049H57.4081L57.4721 5.11084H60.7476L60.6806 5.72049H59.4396V9.33343H58.7131V5.72049Z" fill="white"/>
<path d="M63.9009 9.12803C63.5968 8.95552 63.3507 8.69605 63.1941 8.38267C63.0251 8.03571 62.9414 7.65322 62.9499 7.26715C62.9407 6.8623 63.0301 6.46133 63.2103 6.09899C63.3775 5.77182 63.6386 5.50254 63.96 5.326C64.3154 5.13721 64.7133 5.0433 65.1153 5.05328C65.4973 5.04294 65.8753 5.13399 66.211 5.31723C66.5129 5.4891 66.7568 5.74763 66.9113 6.0596C67.0781 6.40469 67.161 6.78456 67.1531 7.16803C67.163 7.57743 67.0727 7.98302 66.8901 8.34926C66.7223 8.67595 66.4612 8.94501 66.1403 9.12206C65.7886 9.30953 65.3947 9.40294 64.9966 9.39328C64.6144 9.40334 64.2364 9.31184 63.9009 9.12803ZM65.7841 8.61022C65.989 8.47147 66.1479 8.27444 66.2404 8.04443C66.3451 7.78268 66.3965 7.5025 66.3914 7.22048C66.3959 6.94432 66.3507 6.66962 66.2579 6.4096C66.1754 6.18162 66.0263 5.98391 65.8301 5.84232C65.6068 5.69328 65.3422 5.61922 65.0743 5.63083C64.8083 5.62257 64.5463 5.69752 64.3246 5.84531C64.1189 5.98841 63.9585 6.18785 63.8626 6.41987C63.7575 6.67144 63.7051 6.94197 63.7086 7.2147C63.7039 7.4947 63.7532 7.77297 63.8538 8.03416C63.9423 8.26473 64.097 8.46373 64.2984 8.60592C64.5176 8.75172 64.7767 8.82514 65.0396 8.81592C65.3028 8.82402 65.5624 8.75198 65.7841 8.60928V8.61022Z" fill="white"/>
<path d="M67.9644 5.11084H68.7984L70.8787 8.38329C70.8614 8.07218 70.8528 7.7854 70.8526 7.52295V5.11084H71.5269V9.33343H70.7189L68.6061 6.00908C68.6273 6.38652 68.638 6.72096 68.6381 7.01241V9.33343H67.9644V5.11084Z" fill="white"/>
<path fill-rule="evenodd" clip-rule="evenodd" d="M18.792 5.1333H11.0648C7.42477 5.1333 6.09338 6.46946 6.09338 10.1225V17.8774C6.09338 21.5305 7.42477 22.8666 11.0648 22.8666H18.7896C22.4296 22.8666 23.7634 21.5305 23.7634 17.8774V10.1225C23.7634 6.46946 22.4316 5.1333 18.792 5.1333Z" fill="#C8102E"/>
<path d="M9.59255 14.0017H10.0611V16.3203H9.59255V15.3787H8.53403V16.3203H8.06531V14.0017H8.53403V14.9371H9.59255V14.0017ZM12.2338 15.3289C12.2338 15.7058 12.0478 15.9076 11.7087 15.9076C11.3696 15.9076 11.1806 15.7004 11.1806 15.313V14.003H10.7119V15.3283C10.7119 15.9804 11.0729 16.355 11.7024 16.355C12.3379 16.355 12.7023 15.9738 12.7023 15.3097V14.0017H12.2328L12.2338 15.3289ZM17.651 15.596L17.1265 14.0017H16.743L16.2192 15.596L15.7088 14.0028H15.2092L16.0146 16.3201H16.4026L16.9278 14.7978L17.4529 16.3201H17.8444L18.6476 14.0028H18.1616L17.651 15.596ZM19.4889 15.3224H20.3413V14.9003H19.4889V14.4258H20.7263V14.0032H19.0263V16.3188H20.771V15.8964H19.4889V15.3224ZM21.3303 16.3173H21.7929V14.0026H21.3303V16.3173ZM13.6299 15.8361L13.4197 16.319H12.9391L13.9569 14.0017H14.3703L15.384 16.319H14.8926L14.685 15.8361H13.6299ZM13.8043 15.4181H14.513L14.1576 14.5884L13.8043 15.4181Z" fill="white"/>
<path d="M14.9283 11.0497C14.1486 11.0488 13.401 10.7375 12.8496 10.1841C12.2982 9.63076 11.988 8.88048 11.9871 8.0979H12.4026C12.4026 8.77016 12.6687 9.41488 13.1424 9.89024C13.6161 10.3656 14.2585 10.6326 14.9283 10.6326C15.5982 10.6326 16.2406 10.3656 16.7143 9.89024C17.1879 9.41488 17.454 8.77016 17.454 8.0979H17.8696C17.8687 8.88048 17.5585 9.63076 17.0071 10.1841C16.4557 10.7375 15.7081 11.0488 14.9283 11.0497Z" fill="white"/>
</g>
<defs>
<clipPath id="clip0_116_3297">
<path d="M0 4C0 1.79086 1.79086 0 4 0H89C91.2091 0 93 1.79086 93 4V24C93 26.2091 91.2091 28 89 28H4C1.79086 28 0 26.2091 0 24V4Z" fill="white"/>
</clipPath>
</defs>
</svg>
