<svg width="84" height="25" viewBox="0 0 84 25" fill="none" xmlns="http://www.w3.org/2000/svg">
<g clip-path="url(#clip0_116_2207)">
<path d="M78.0738 0H5.92939C5.70142 0 5.47579 0 5.24866 0.00116667C5.05831 0.0025 4.86948 0.006 4.67746 0.009C4.25992 0.0139189 3.84336 0.0503575 3.4314 0.118C3.01995 0.187194 2.62139 0.317608 2.24918 0.504833C1.87732 0.693658 1.53754 0.939073 1.24219 1.23217C0.945394 1.52427 0.698004 1.86194 0.509544 2.23217C0.320521 2.60172 0.189429 2.99772 0.120792 3.4065C0.0515868 3.81475 0.0143475 4.22771 0.009408 4.64167C0.003696 4.83083 0.003024 5.0205 0 5.20967V19.792C0.003024 19.9837 0.003696 20.1692 0.009408 20.3608C0.0143475 20.7748 0.0515868 21.1877 0.120792 21.596C0.189272 22.005 0.320371 22.4012 0.509544 22.7708C0.697908 23.1399 0.945333 23.4762 1.24219 23.7667C1.53633 24.061 1.87621 24.3065 2.24885 24.4938C2.62104 24.6816 3.01956 24.8129 3.43106 24.8832C3.84309 24.9503 4.25961 24.9868 4.67712 24.9922C4.86948 24.9963 5.05831 24.9988 5.24832 24.9988C5.47579 25 5.70108 25 5.92906 25H78.0738C78.2974 25 78.5245 25 78.748 24.9988C78.9375 24.9988 79.1319 24.9963 79.3214 24.9922C79.7379 24.987 80.1535 24.9506 80.5646 24.8832C80.9774 24.8124 81.3773 24.6812 81.7513 24.4938C82.1235 24.3064 82.463 24.0609 82.7568 23.7667C83.0529 23.4751 83.3009 23.139 83.4916 22.7708C83.6794 22.4009 83.8092 22.0047 83.8767 21.596C83.946 21.1877 83.9846 20.7748 83.9921 20.3608C83.9945 20.1692 83.9945 19.9837 83.9945 19.792C83.9993 19.568 83.9993 19.345 83.9993 19.1172V5.88333C83.9993 5.65733 83.9993 5.43333 83.9945 5.20967C83.9945 5.0205 83.9945 4.83083 83.9921 4.64167C83.9846 4.22768 83.946 3.81481 83.8767 3.4065C83.8091 2.99795 83.6793 2.60198 83.4916 2.23217C83.1077 1.49012 82.499 0.886055 81.7512 0.504833C81.3774 0.318124 80.9776 0.187746 80.5651 0.118C80.1541 0.0500933 79.7385 0.0136524 79.3219 0.009C79.1324 0.006 78.938 0.0025 78.7485 0.00116667C78.5245 0 78.2974 0 78.0738 0V0Z" fill="#B6B6B6"/>
<path d="M5.25167 24.4601C5.06217 24.4601 4.87737 24.4578 4.68938 24.4535C4.29996 24.4486 3.91143 24.4152 3.52698 24.3535C3.16852 24.2922 2.82126 24.1783 2.49664 24.0155C2.17503 23.8539 1.88171 23.6421 1.62791 23.3881C1.37035 23.1373 1.15595 22.8462 0.993209 22.5266C0.82863 22.2049 0.714747 21.8601 0.655529 21.5041C0.591567 21.1217 0.556971 20.7351 0.552041 20.3475C0.548009 20.2173 0.542969 19.7841 0.542969 19.7841V5.20963C0.542969 5.20963 0.548345 4.78313 0.552041 4.65779C0.556757 4.27076 0.591185 3.88464 0.655025 3.50279C0.714407 3.14596 0.828334 2.8002 0.992873 2.47746C1.15504 2.15805 1.36824 1.86679 1.62422 1.61496C1.87984 1.3607 2.17412 1.14783 2.4963 0.984128C2.82016 0.821831 3.16674 0.708682 3.52446 0.648462C3.91019 0.585955 4.30008 0.552138 4.69089 0.547295L5.25201 0.539795H78.7449L79.3128 0.547628C79.7 0.552079 80.0863 0.585507 80.4685 0.647628C80.8298 0.708492 81.18 0.822408 81.5075 0.985628C82.1531 1.31546 82.6783 1.83755 83.0095 2.47863C83.1714 2.79895 83.2836 3.14171 83.3423 3.4953C83.4068 3.88028 83.4429 4.26942 83.4503 4.65963C83.4521 4.83446 83.4521 5.02213 83.4521 5.2088C83.457 5.4403 83.457 5.66046 83.457 5.88246V19.1158C83.457 19.34 83.457 19.5588 83.4521 19.7793C83.4521 19.9793 83.4521 20.1636 83.4498 20.3528C83.4425 20.736 83.407 21.1182 83.3435 21.4963C83.2854 21.8548 83.172 22.2023 83.0075 22.5266C82.8436 22.8428 82.6305 23.1314 82.3759 23.3816C82.1218 23.6368 81.828 23.8498 81.5057 24.0125C81.179 24.1765 80.8293 24.2908 80.4683 24.3516C80.0839 24.4137 79.6953 24.4471 79.3059 24.4516C79.1238 24.456 78.9329 24.4583 78.7478 24.4583L78.0736 24.4595L5.25167 24.4601Z" fill="black"/>
<path d="M31.1783 16.8765H28.2284L27.5061 18.8335H26.2094L29.0976 11.5232H30.324L33.2788 18.8335H31.9158L31.1783 16.8765ZM28.5997 15.8825H30.802L30.0135 13.7885C29.905 13.4996 29.7982 13.1801 29.6932 12.8299C29.5983 13.1395 29.4949 13.4557 29.3829 13.7785L28.5997 15.8825Z" fill="white"/>
<path d="M33.8017 14.7218C33.8017 14.3182 33.7881 13.8742 33.7609 13.3898H34.9409C34.9853 13.6182 35.0159 13.849 35.0325 14.081C35.238 13.8367 35.4945 13.6393 35.7842 13.5026C36.0739 13.3659 36.39 13.2929 36.7108 13.2888C37.0873 13.2827 37.4571 13.3882 37.7728 13.5918C38.0886 13.7954 38.3359 14.0878 38.4832 14.4317C38.6908 14.9062 38.789 15.4208 38.7706 15.9378C38.7862 16.4986 38.6741 17.0557 38.4425 17.5675C38.247 17.9925 37.9272 18.3494 37.5246 18.5918C37.1108 18.8292 36.6394 18.9496 36.1616 18.94C35.7857 18.9395 35.4126 18.8764 35.0578 18.7533V21.0033L33.8017 21.1092V14.7218ZM37.1049 17.5052C37.3609 17.1636 37.489 16.6649 37.489 16.0092C37.489 15.4003 37.383 14.9587 37.1711 14.6845C37.074 14.5531 36.9462 14.447 36.7987 14.3754C36.6512 14.3038 36.4884 14.2689 36.3242 14.2735C36.0876 14.2716 35.8545 14.3307 35.6478 14.445C35.4294 14.5684 35.2306 14.7231 35.0578 14.9042V17.8208C35.1971 17.886 35.3437 17.9342 35.4946 17.9645C35.6567 17.9995 35.822 18.0173 35.9879 18.0177C36.2022 18.0298 36.4163 17.9894 36.6111 17.8998C36.8059 17.8103 36.9755 17.6745 37.1047 17.5045L37.1049 17.5052Z" fill="white"/>
<path d="M39.5326 14.7218C39.5326 14.3182 39.519 13.8742 39.4919 13.3898H40.6728C40.7173 13.6182 40.7478 13.849 40.7644 14.081C40.97 13.8367 41.2264 13.6393 41.5161 13.5026C41.8058 13.3659 42.1219 13.2929 42.4427 13.2888C42.8192 13.2828 43.189 13.3883 43.5048 13.5919C43.8205 13.7955 44.0679 14.0878 44.2153 14.4317C44.4227 14.9063 44.5208 15.4208 44.5025 15.9378C44.518 16.4986 44.4059 17.0556 44.1744 17.5675C43.9789 17.9925 43.6591 18.3494 43.2565 18.5918C42.8427 18.8292 42.3712 18.9496 41.8933 18.94C41.5175 18.9395 41.1445 18.8764 40.7897 18.7533V21.0033L39.5334 21.1092L39.5326 14.7218ZM42.836 17.5052C43.092 17.1636 43.22 16.6649 43.22 16.0092C43.22 15.4003 43.1141 14.9587 42.9022 14.6845C42.8051 14.5531 42.6773 14.447 42.5298 14.3754C42.3823 14.3038 42.2194 14.2689 42.0553 14.2735C41.8187 14.2716 41.5856 14.3307 41.3789 14.445C41.1605 14.5684 40.9617 14.7231 40.7889 14.9042V17.8208C40.9281 17.886 41.0748 17.9342 41.2257 17.9645C41.3878 17.9995 41.5532 18.0173 41.7191 18.0177C41.9335 18.0298 42.1475 17.9893 42.3423 17.8998C42.5371 17.8103 42.7067 17.6745 42.836 17.5045V17.5052Z" fill="white"/>
<path d="M46.8093 18.4883C46.2722 18.1964 45.8363 17.7507 45.5582 17.2093C45.2539 16.5983 45.104 15.9229 45.1214 15.2415C45.0989 14.5123 45.2729 13.7903 45.6254 13.15C45.9428 12.594 46.4199 12.1443 46.996 11.8585C47.6012 11.5647 48.2677 11.4169 48.9414 11.427C49.3499 11.4253 49.7572 11.4719 50.1546 11.5658C50.5259 11.6537 50.8864 11.7814 51.2298 11.9468L50.9092 12.9055C50.3156 12.6073 49.6621 12.4452 48.9969 12.4312C48.5275 12.4207 48.0636 12.5329 47.6519 12.7567C47.2624 12.9784 46.9495 13.3116 46.7541 13.7127C46.5283 14.1887 46.4186 14.7107 46.4337 15.2365C46.4251 15.7104 46.5087 16.1816 46.6801 16.624C46.8345 17.0151 47.1062 17.3498 47.4585 17.5827C47.8594 17.831 48.3263 17.954 48.7986 17.9358C49.044 17.9357 49.2889 17.9155 49.5309 17.8753C49.7648 17.8377 49.9947 17.7785 50.2176 17.6987V16.2203H48.5132V15.2517H51.4376V18.3295C51.0134 18.5258 50.5693 18.6763 50.1127 18.7785C49.6597 18.8816 49.1965 18.934 48.7318 18.9348C48.063 18.9517 47.4011 18.7979 46.8093 18.4883Z" fill="white"/>
<path d="M55.9018 18.8335C55.8545 18.5955 55.8255 18.3543 55.8153 18.112C55.6048 18.3544 55.3478 18.5527 55.0593 18.6953C54.734 18.8585 54.3736 18.9407 54.0091 18.9348C53.7114 18.9389 53.4167 18.8763 53.1469 18.7515C52.8902 18.6312 52.6753 18.438 52.5292 18.1965C52.3693 17.9217 52.29 17.608 52.3002 17.2908C52.291 17.0504 52.3382 16.8112 52.4379 16.5919C52.5376 16.3725 52.6872 16.1791 52.8749 16.0268C53.2582 15.7125 53.8973 15.5553 54.7923 15.5552C55.1259 15.5551 55.459 15.5787 55.7892 15.6258V15.5198C55.7892 15.0388 55.6858 14.6999 55.4789 14.5032C55.2328 14.2924 54.9129 14.1864 54.5885 14.208C54.2982 14.2112 54.0095 14.2504 53.729 14.3247C53.453 14.3919 53.184 14.4848 52.9255 14.602L52.7271 13.6938C53.0124 13.5734 53.3088 13.4804 53.6121 13.4163C53.9924 13.3307 54.3813 13.2884 54.7713 13.2902C55.1853 13.279 55.5972 13.352 55.9817 13.5047C56.3196 13.6529 56.5948 13.9134 56.7599 14.2413C56.9658 14.6806 57.0618 15.1626 57.0396 15.6465V17.811C57.0396 18.0364 57.0533 18.3779 57.0805 18.8353L55.9018 18.8335ZM55.1491 17.8243C55.3917 17.7134 55.6095 17.5556 55.7899 17.3602V16.3517C55.511 16.3188 55.2307 16.3002 54.9499 16.2962C54.4311 16.2962 54.0727 16.3795 53.8747 16.5462C53.7766 16.6285 53.6988 16.732 53.6472 16.8487C53.5956 16.9654 53.5716 17.0923 53.577 17.2197C53.5681 17.3288 53.5828 17.4385 53.6202 17.5415C53.6576 17.6445 53.7168 17.7384 53.7937 17.8168C53.9577 17.9534 54.168 18.0228 54.3817 18.011C54.6484 18.0073 54.9108 17.9437 55.1491 17.825V17.8243Z" fill="white"/>
<path d="M58.0048 17.5273V11.0939L59.2559 10.9929V17.3049C59.2398 17.4775 59.2818 17.6505 59.3753 17.7969C59.4234 17.8478 59.4825 17.8872 59.5481 17.9121C59.6138 17.937 59.6843 17.9468 59.7543 17.9408C59.8663 17.9354 59.9773 17.9167 60.0848 17.8851L60.2323 18.7783C60.0918 18.8312 59.9462 18.8692 59.7977 18.8918C59.6372 18.9193 59.4747 18.9337 59.3118 18.9346C58.4402 18.9348 58.0045 18.4657 58.0048 17.5273Z" fill="white"/>
<path d="M61.1326 17.5273V11.0939L62.3837 10.9929V17.3049C62.3676 17.4775 62.4096 17.6505 62.5031 17.7969C62.5512 17.8478 62.6103 17.8872 62.6759 17.9121C62.7416 17.937 62.8121 17.9468 62.8821 17.9408C62.9942 17.9354 63.1052 17.9167 63.2127 17.8851L63.3602 18.7783C63.2198 18.8312 63.074 18.8692 62.9255 18.8918C62.765 18.9193 62.6025 18.9337 62.4396 18.9346C61.5681 18.9348 61.1325 18.4657 61.1326 17.5273Z" fill="white"/>
<path d="M68.5058 16.271H64.9153C64.9729 17.4113 65.5205 17.9815 66.5582 17.9815C66.8246 17.9804 67.0899 17.9491 67.3491 17.8881C67.6144 17.8271 67.8739 17.7435 68.1246 17.6381L68.3993 18.4908C67.7526 18.7941 67.0444 18.946 66.3292 18.9348C65.8175 18.9513 65.31 18.8385 64.8543 18.607C64.4605 18.3949 64.1445 18.0646 63.9517 17.6633C63.7383 17.1981 63.6349 16.6908 63.6493 16.18C63.6351 15.6445 63.7448 15.1129 63.9698 14.626C64.1626 14.215 64.473 13.8694 64.8622 13.632C65.2617 13.3985 65.7187 13.2797 66.1822 13.2888C66.6426 13.2722 67.0968 13.3984 67.4817 13.6496C67.8279 13.8888 68.0964 14.2228 68.2545 14.6108C68.4264 15.0322 68.512 15.4833 68.5065 15.9378L68.5058 16.271ZM67.2794 15.4788C67.2843 15.1255 67.1677 14.7811 66.9488 14.5025C66.8493 14.3943 66.7272 14.3091 66.591 14.2529C66.4548 14.1966 66.3078 14.1707 66.1604 14.177C66.0119 14.1732 65.8644 14.2005 65.7273 14.257C65.5902 14.3135 65.4666 14.398 65.3645 14.505C65.1278 14.779 64.9829 15.1194 64.9499 15.4788H67.2794Z" fill="white"/>
<path d="M69.4556 14.7573C69.4556 14.458 69.442 14.0024 69.4149 13.3906H70.5897C70.61 13.542 70.6295 13.7228 70.6482 13.9331C70.6669 14.1435 70.6796 14.3141 70.6863 14.4451C70.8129 14.233 70.9567 14.0314 71.1161 13.8423C71.2547 13.6807 71.4219 13.5456 71.6093 13.4435C71.8071 13.3386 72.0286 13.2857 72.2528 13.2896C72.421 13.2864 72.5888 13.3069 72.7512 13.3503L72.5935 14.43C72.4614 14.3916 72.3244 14.3729 72.1868 14.3745C71.912 14.3686 71.6421 14.4471 71.414 14.5991C71.1387 14.8049 70.8998 15.0546 70.707 15.3381V18.8335H69.4559L69.4556 14.7573Z" fill="white"/>
<path d="M73.4565 21.0616C73.3031 21.0369 73.1518 21.0007 73.0039 20.9532L73.2327 20.0451C73.3174 20.0684 73.4242 20.0911 73.5531 20.1131C73.674 20.1345 73.7965 20.1456 73.9193 20.1464C74.4754 20.1464 74.8924 19.7915 75.1704 19.0817L75.2519 18.8799L73.2277 13.3899H74.5752L75.5924 16.4576C75.7246 16.8524 75.8316 17.2552 75.9128 17.6634C76.0078 17.2699 76.1198 16.8764 76.2488 16.4829L77.2814 13.3899H78.5477L76.5285 18.9047C76.3769 19.3491 76.1701 19.773 75.913 20.1667C75.7165 20.4647 75.4482 20.7092 75.1323 20.8782C74.7945 21.0412 74.422 21.1208 74.0465 21.1102C73.8488 21.111 73.6514 21.0948 73.4565 21.0616Z" fill="white"/>
<path d="M26.2039 4.56323H28.4425L28.3795 5.09973H26.8596V6.13873H28.2928V6.6414H26.8596V7.7924H28.4608L28.4062 8.3334H26.2039V4.56323Z" fill="white"/>
<path d="M29.9863 6.40957L28.8051 4.56323H29.5512L30.3519 5.92007L31.1946 4.56323H31.919L30.7482 6.38607L32.0154 8.3334H31.2594L30.3539 6.84907L29.4324 8.3334H28.708L29.9863 6.40957Z" fill="white"/>
<path d="M32.4985 4.56323H33.5223C34.0039 4.56323 34.3723 4.66045 34.6274 4.8549C34.7552 4.95444 34.8567 5.08315 34.9234 5.23006C34.9902 5.37697 35.0201 5.53771 35.0106 5.69857C35.016 5.92853 34.9565 6.1554 34.8388 6.35357C34.7245 6.53991 34.558 6.68921 34.3596 6.78323C34.1393 6.88659 33.8978 6.93793 33.654 6.93323C33.4866 6.931 33.3197 6.91354 33.1554 6.88107V8.3334H32.499L32.4985 4.56323ZM34.1449 6.24657C34.2167 6.17818 34.2727 6.09515 34.3089 6.00321C34.3452 5.91127 34.3609 5.81262 34.3549 5.71407C34.3637 5.61932 34.3487 5.5239 34.3114 5.43625C34.2741 5.3486 34.2156 5.27143 34.1411 5.21157C33.9526 5.09692 33.733 5.04322 33.5124 5.0579H33.1549V6.3964C33.2798 6.41854 33.4061 6.43157 33.5329 6.4354C33.7534 6.45085 33.9717 6.38351 34.1444 6.24673L34.1449 6.24657Z" fill="white"/>
<path d="M35.6591 4.56323H36.3153V7.77673H37.8876L37.8325 8.3334H35.6591V4.56323Z" fill="white"/>
<path d="M38.8852 8.15011C38.6105 7.99609 38.3882 7.76441 38.2467 7.48461C38.0942 7.17481 38.0186 6.8333 38.0263 6.48861C38.0181 6.12714 38.0988 5.76912 38.2615 5.44561C38.4126 5.15356 38.6485 4.91316 38.9387 4.75544C39.2598 4.58688 39.6191 4.50302 39.9822 4.51194C40.3272 4.50269 40.6687 4.58398 40.9719 4.74761C41.2446 4.90102 41.4649 5.13185 41.6044 5.41044C41.7551 5.71853 41.83 6.05772 41.8228 6.40011C41.8318 6.76566 41.7503 7.12781 41.5852 7.45477C41.4337 7.74647 41.1979 7.9867 40.908 8.14477C40.5904 8.31216 40.2347 8.39556 39.8752 8.38694C39.5299 8.39596 39.1883 8.31426 38.8852 8.15011ZM40.5861 7.68777C40.7712 7.56389 40.9147 7.38798 40.9983 7.18261C41.093 6.94894 41.1394 6.69876 41.1348 6.44694C41.1389 6.20035 41.098 5.95507 41.014 5.72294C40.9396 5.51935 40.8049 5.34281 40.6276 5.21644C40.426 5.08331 40.187 5.01718 39.9451 5.02761C39.7048 5.02023 39.4681 5.08715 39.2679 5.21911C39.0821 5.34698 38.9373 5.52502 38.8505 5.73211C38.7558 5.95675 38.7084 6.19827 38.7114 6.44177C38.7073 6.69177 38.7518 6.94021 38.8426 7.17344C38.9228 7.37923 39.0628 7.55675 39.2448 7.68344C39.4428 7.81364 39.6768 7.87919 39.9141 7.87094C40.1517 7.87825 40.386 7.81411 40.5861 7.68694V7.68777Z" fill="white"/>
<path d="M42.5544 4.56334H43.7435C44.0917 4.53939 44.4382 4.63001 44.7292 4.82118C44.8404 4.90844 44.9289 5.02094 44.9871 5.1492C45.0453 5.27745 45.0717 5.41772 45.0639 5.55817C45.0678 5.74112 45.0263 5.9222 44.9431 6.08551C44.8701 6.22825 44.7682 6.35454 44.6439 6.45651C44.5337 6.54683 44.4097 6.61898 44.2764 6.67018L45.4451 8.33351H44.6838L43.6942 6.83867H43.2112V8.33351H42.5544V4.56334ZM43.5834 6.34667C43.7297 6.34964 43.8745 6.31792 44.006 6.25417C44.1243 6.19623 44.2234 6.10589 44.2916 5.99384C44.3615 5.87602 44.397 5.74121 44.394 5.60451C44.4006 5.52585 44.3874 5.44681 44.3559 5.37437C44.3243 5.30193 44.2752 5.23832 44.2129 5.18918C44.0553 5.09153 43.8707 5.04553 43.6853 5.05767H43.2101V6.34667H43.5834Z" fill="white"/>
<path d="M45.9648 4.56323H48.2039L48.1409 5.09973H46.6211V6.13873H48.0543V6.6414H46.6211V7.7924H48.2223L48.1672 8.3334H45.9648V4.56323Z" fill="white"/>
<path d="M50.64 4.56323H51.2962V8.3334H50.64V4.56323Z" fill="white"/>
<path d="M53.0312 5.10757H51.8525L51.9103 4.56323H54.8688L54.8083 5.10757H53.6874V8.3334H53.0312V5.10757Z" fill="white"/>
<path d="M57.717 8.1501C57.4423 7.99608 57.22 7.76441 57.0786 7.4846C56.926 7.17482 56.8504 6.83331 56.858 6.4886C56.8497 6.12713 56.9305 5.76912 57.0932 5.4456C57.2442 5.15349 57.4801 4.91306 57.7704 4.75544C58.0914 4.58687 58.4507 4.50302 58.8139 4.51194C59.1589 4.50271 59.5003 4.584 59.8035 4.7476C60.0763 4.90106 60.2965 5.13189 60.4361 5.41044C60.5867 5.71855 60.6616 6.05772 60.6545 6.4001C60.6634 6.76564 60.5818 7.12778 60.4169 7.45477C60.2654 7.74646 60.0296 7.9867 59.7397 8.14477C59.422 8.31216 59.0663 8.39556 58.7067 8.38694C58.3615 8.39592 58.0201 8.31422 57.717 8.1501ZM59.418 7.68777C59.603 7.56389 59.7465 7.38797 59.8301 7.1826C59.9247 6.9489 59.9711 6.69874 59.9665 6.44694C59.9706 6.20037 59.9297 5.9551 59.8459 5.72294C59.7714 5.51938 59.6367 5.34286 59.4595 5.21644C59.2579 5.08336 59.0188 5.01724 58.7769 5.0276C58.5366 5.02023 58.2999 5.08715 58.0997 5.2191C57.9139 5.34688 57.769 5.52495 57.6824 5.7321C57.5875 5.95672 57.5402 6.19826 57.5433 6.44177C57.539 6.69177 57.5836 6.94023 57.6745 7.17344C57.7544 7.3793 57.8941 7.55698 58.076 7.68394C58.274 7.81412 58.5081 7.87967 58.7455 7.87144C58.9833 7.87867 59.2177 7.81435 59.418 7.68694V7.68777Z" fill="white"/>
<path d="M61.3872 4.56323H62.1405L64.0194 7.48507C64.0039 7.20729 63.996 6.95123 63.9959 6.7169V4.56323H64.6049V8.3334H63.8751L61.9668 5.36523C61.986 5.70223 61.9956 6.00084 61.9957 6.26107V8.3334H61.3872V4.56323Z" fill="white"/>
<path fill-rule="evenodd" clip-rule="evenodd" d="M16.9734 4.58325H9.99397C6.70621 4.58325 5.50366 5.77625 5.50366 9.03792V15.9619C5.50366 19.2236 6.70621 20.4166 9.99397 20.4166H16.9712C20.2589 20.4166 21.4637 19.2236 21.4637 15.9619V9.03792C21.4637 5.77625 20.2608 4.58325 16.9734 4.58325Z" fill="#C8102E"/>
<path d="M8.66424 12.5015H9.08743V14.5716H8.66424V13.731H7.70815V14.5716H7.28479V12.5015H7.70815V13.3366H8.66424V12.5015ZM11.0498 13.6865C11.0498 14.023 10.8818 14.2031 10.5756 14.2031C10.2693 14.2031 10.0986 14.0181 10.0986 13.6723V12.5026H9.67526V13.686C9.67526 14.2681 10.0014 14.6026 10.5699 14.6026C11.1439 14.6026 11.473 14.2623 11.473 13.6693V12.5015H11.049L11.0498 13.6865ZM15.9428 13.925L15.4691 12.5015H15.1227L14.6496 13.925L14.1886 12.5025H13.7373L14.4648 14.5715H14.8152L15.2897 13.2123L15.7639 14.5715H16.1176L16.843 12.5025H16.404L15.9428 13.925ZM17.6028 13.6806H18.3728V13.3038H17.6028V12.8801H18.7205V12.5028H17.185V14.5703H18.7609V14.1931H17.6028V13.6806ZM19.266 14.569H19.6839V12.5023H19.266V14.569ZM12.3108 14.1393L12.121 14.5705H11.6869L12.6062 12.5015H12.9797L13.8953 14.5705H13.4514L13.2639 14.1393H12.3108ZM12.4684 13.7661H13.1085L12.7875 13.0253L12.4684 13.7661Z" fill="white"/>
<path d="M13.4836 9.86572C12.7793 9.86493 12.104 9.58701 11.606 9.09293C11.108 8.59885 10.8278 7.92896 10.827 7.23022H11.2023C11.2023 7.83045 11.4427 8.4061 11.8705 8.83053C12.2983 9.25495 12.8786 9.49339 13.4836 9.49339C14.0886 9.49339 14.6689 9.25495 15.0967 8.83053C15.5245 8.4061 15.7649 7.83045 15.7649 7.23022H16.1402C16.1394 7.92896 15.8592 8.59885 15.3612 9.09293C14.8632 9.58701 14.1879 9.86493 13.4836 9.86572Z" fill="white"/>
</g>
<defs>
<clipPath id="clip0_116_2207">
<path d="M0 4C0 1.79086 1.79086 0 4 0H80C82.2091 0 84 1.79086 84 4V21C84 23.2091 82.2091 25 80 25H4C1.79086 25 0 23.2091 0 21V4Z" fill="white"/>
</clipPath>
</defs>
</svg>
