<svg width="84" height="28" viewBox="0 0 84 28" fill="none" xmlns="http://www.w3.org/2000/svg">
<g clip-path="url(#clip0_116_2163)">
<path d="M77.3108 -0.000153141H6.69301C6.4356 -0.000153141 6.18128 -0.000153141 5.92455 0.00124686C5.70964 0.00264686 5.49645 0.00671386 5.27948 0.0101369C4.80812 0.0156681 4.33787 0.0570202 3.87281 0.133834C3.40841 0.21232 2.95855 0.360288 2.53846 0.572734C2.11888 0.786977 1.7355 1.06536 1.40222 1.3978C1.0672 1.72929 0.78793 2.11246 0.575155 2.53256C0.361793 2.95182 0.213847 3.4011 0.136427 3.86488C0.0582708 4.32808 0.0162143 4.79661 0.0106348 5.26628C0.00412054 5.4809 0.00343261 5.69624 0 5.91088V22.0909C0.00343261 22.3082 0.00412054 22.5188 0.0106348 22.7362C0.016216 23.2058 0.0582725 23.6744 0.136427 24.1375C0.213633 24.6016 0.361588 25.0511 0.575155 25.4705C0.787833 25.8893 1.06714 26.2709 1.40222 26.6005C1.73424 26.9345 2.11787 27.213 2.53846 27.4256C2.95855 27.6387 3.40836 27.7875 3.87281 27.8672C4.33795 27.9434 4.80815 27.9848 5.27948 27.991C5.49645 27.9957 5.70964 27.9984 5.92455 27.9984C6.18127 27.9998 6.43562 27.9998 6.69301 27.9998H77.3108C77.563 27.9998 77.8194 27.9998 78.0717 27.9984C78.2856 27.9984 78.505 27.9957 78.7188 27.991C79.1893 27.9851 79.6586 27.9437 80.1228 27.8672C80.5887 27.7869 81.0401 27.6381 81.4622 27.4256C81.8825 27.2129 82.2657 26.9343 82.5975 26.6005C82.9317 26.2696 83.2116 25.8883 83.4269 25.4705C83.6389 25.0508 83.7854 24.6013 83.8615 24.1375C83.9398 23.6743 83.9833 23.2059 83.9918 22.7362C83.9945 22.5188 83.9945 22.3082 83.9945 22.0909C84 21.8366 84 21.5836 84 21.3252V6.67514C84 6.41879 84 6.16449 83.9945 5.91088C83.9945 5.69624 83.9945 5.4809 83.9918 5.26626C83.9833 4.79654 83.9398 4.32811 83.8615 3.86486C83.7852 3.40134 83.6387 2.9521 83.4269 2.53253C82.9936 1.69048 82.3065 1.00506 81.4622 0.572671C81.0401 0.360744 80.5887 0.212815 80.1228 0.133771C79.6587 0.0566188 79.1893 0.0152523 78.7188 0.0100389C78.505 0.00662286 78.2856 0.00252086 78.0717 0.00115586C77.8194 -0.000244141 77.563 -0.000244141 77.3108 -0.000244141V-0.000153141Z" fill="#A6A6A6"/>
<path d="M5.92795 27.3875C5.71407 27.3875 5.50536 27.3848 5.29317 27.3801C4.85358 27.3743 4.41503 27.3362 3.9811 27.2659C3.57648 27.1964 3.18451 27.0671 2.81812 26.8824C2.45509 26.6991 2.12398 26.4588 1.83748 26.1707C1.54682 25.886 1.30484 25.5558 1.12111 25.1932C0.935366 24.8282 0.806818 24.437 0.739947 24.0331C0.667732 23.5992 0.62866 23.1605 0.62307 22.7206C0.618619 22.573 0.612793 22.0815 0.612793 22.0815V5.91109C0.612793 5.91109 0.618998 5.4271 0.623105 5.28491C0.628458 4.84579 0.667302 4.40771 0.739301 3.97446C0.806296 3.56952 0.934944 3.17717 1.12079 2.81099C1.30384 2.44861 1.54448 2.11815 1.83338 1.83242C2.12196 1.54398 2.45413 1.30247 2.81778 1.1167C3.18332 0.932514 3.57455 0.804162 3.97835 0.735938C4.41371 0.664934 4.85379 0.626546 5.29489 0.621096L5.92829 0.612549H78.0682L78.7092 0.621439C79.1463 0.626618 79.5824 0.664664 80.0137 0.735252C80.4216 0.804331 80.8169 0.93358 81.1866 1.11875C81.9152 1.49314 82.5079 2.08546 82.8819 2.8127C83.0648 3.17635 83.1914 3.5655 83.2576 3.96694C83.3304 4.40374 83.3712 4.84527 83.3796 5.28799C83.3816 5.48623 83.3816 5.69917 83.3816 5.91109C83.3872 6.17359 83.3872 6.42344 83.3872 6.67534V21.3254C83.3872 21.5797 83.3872 21.8279 83.3816 22.078C83.3816 22.3057 83.3816 22.5142 83.3789 22.7288C83.3707 23.1637 83.3306 23.5973 83.2589 24.0263C83.1934 24.433 83.0656 24.8273 82.8798 25.1953C82.6948 25.554 82.4542 25.8813 82.1669 26.1653C81.8802 26.4549 81.5485 26.6966 81.1846 26.881C80.8159 27.0672 80.4212 27.197 80.0137 27.2659C79.5798 27.3366 79.1412 27.3747 78.7016 27.3801C78.496 27.3848 78.2807 27.3875 78.0717 27.3875L77.3107 27.3889L5.92795 27.3875Z" fill="black"/>
<path d="M17.3868 14.2106C17.3944 13.6264 17.55 13.0535 17.8392 12.5453C18.1285 12.0372 18.5419 11.6102 19.0411 11.3042C18.724 10.8526 18.3056 10.4809 17.8193 10.2187C17.3329 9.95654 16.792 9.81104 16.2394 9.7938C15.0606 9.67042 13.9179 10.4972 13.3172 10.4972C12.7049 10.4972 11.78 9.80605 10.7841 9.82649C10.14 9.84724 9.51217 10.034 8.96192 10.3687C8.41166 10.7033 7.95772 11.1744 7.64431 11.736C6.28671 14.0799 7.29936 17.5246 8.59983 19.4193C9.25048 20.347 10.0109 21.3833 11.0059 21.3466C11.9796 21.3063 12.3432 20.7274 13.5185 20.7274C14.6829 20.7274 15.0241 21.3466 16.0393 21.3232C17.0841 21.3063 17.7423 20.3913 18.3702 19.4548C18.8377 18.7937 19.1974 18.0631 19.436 17.29C18.829 17.034 18.311 16.6055 17.9466 16.0579C17.5822 15.5103 17.3875 14.8678 17.3868 14.2106Z" fill="white"/>
<path d="M15.4693 8.54768C16.0389 7.86574 16.3196 6.98921 16.2516 6.10425C15.3813 6.1954 14.5774 6.61019 14 7.26597C13.7177 7.58634 13.5015 7.95905 13.3638 8.36279C13.226 8.76652 13.1694 9.19338 13.1972 9.61895C13.6325 9.62342 14.0632 9.52933 14.4567 9.34377C14.8503 9.15821 15.1965 8.88601 15.4693 8.54768Z" fill="white"/>
<path d="M29.6946 18.9979H26.3719L25.574 21.3474H24.1666L27.3138 12.6548H28.776L31.9232 21.3474H30.4918L29.6946 18.9979ZM26.716 17.9137H29.3498L28.0515 14.1006H28.0151L26.716 17.9137Z" fill="white"/>
<path d="M38.7201 18.179C38.7201 20.1484 37.6631 21.4138 36.0679 21.4138C35.6638 21.4348 35.2619 21.342 34.9083 21.1459C34.5546 20.9498 34.2635 20.6584 34.0682 20.305H34.0381V23.444H32.7335V15.0099H33.9963V16.064H34.0202C34.2245 15.7122 34.5205 15.4223 34.8769 15.225C35.2332 15.0277 35.6365 14.9305 36.0439 14.9436C37.6569 14.9436 38.7201 16.215 38.7201 18.179ZM37.3793 18.179C37.3793 16.8959 36.7143 16.0523 35.6998 16.0523C34.703 16.0523 34.0326 16.9137 34.0326 18.179C34.0326 19.456 34.703 20.3111 35.6998 20.3111C36.7143 20.3111 37.3793 19.4737 37.3793 18.179Z" fill="white"/>
<path d="M45.7151 18.179C45.7151 20.1484 44.6581 21.4138 43.0629 21.4138C42.6588 21.4348 42.2569 21.342 41.9033 21.1459C41.5496 20.9498 41.2585 20.6584 41.0632 20.305H41.033V23.444H39.7285V15.0099H40.9912V16.064H41.0152C41.2195 15.7122 41.5155 15.4223 41.8718 15.225C42.2282 15.0277 42.6315 14.9304 43.0389 14.9436C44.6519 14.9436 45.7151 16.215 45.7151 18.179ZM44.3743 18.179C44.3743 16.8959 43.7093 16.0523 42.6947 16.0523C41.698 16.0523 41.0276 16.9137 41.0276 18.179C41.0276 19.456 41.698 20.3111 42.6947 20.3111C43.7093 20.3111 44.3743 19.4737 44.3743 18.179H44.3743Z" fill="white"/>
<path d="M50.3382 18.9253C50.4349 19.7873 51.2746 20.3533 52.4222 20.3533C53.5217 20.3533 54.3128 19.7873 54.3128 19.0101C54.3128 18.3354 53.8357 17.9314 52.706 17.6545L51.5762 17.3831C49.9756 16.9976 49.2325 16.2511 49.2325 15.0397C49.2325 13.5399 50.5432 12.5098 52.4043 12.5098C54.2463 12.5098 55.509 13.5399 55.5515 15.0397H54.2346C54.1558 14.1723 53.4367 13.6486 52.3858 13.6486C51.3349 13.6486 50.6158 14.1784 50.6158 14.9495C50.6158 15.5641 51.0751 15.9257 52.1987 16.2025L53.1591 16.4377C54.9476 16.8595 55.6907 17.5759 55.6907 18.8473C55.6907 20.4736 54.3916 21.4922 52.3255 21.4922C50.3923 21.4922 49.0871 20.4975 49.0028 18.9253L50.3382 18.9253Z" fill="white"/>
<path d="M58.5061 13.51V15.0098H59.7147V16.04H58.5061V19.5338C58.5061 20.0766 58.7481 20.3295 59.2794 20.3295C59.4229 20.327 59.5661 20.317 59.7085 20.2994V21.3235C59.4697 21.368 59.2269 21.3881 58.9839 21.3836C57.6972 21.3836 57.1954 20.9017 57.1954 19.6726V16.04H56.2714V15.0098H57.1954V13.51H58.5061Z" fill="white"/>
<path d="M60.4146 18.179C60.4146 16.1849 61.5923 14.9319 63.4288 14.9319C65.2714 14.9319 66.4436 16.1849 66.4436 18.179C66.4436 20.1785 65.2776 21.426 63.4288 21.426C61.5806 21.426 60.4146 20.1785 60.4146 18.179ZM65.1144 18.179C65.1144 16.8111 64.4858 16.0038 63.4287 16.0038C62.3717 16.0038 61.7438 16.8172 61.7438 18.179C61.7438 19.5523 62.3717 20.3535 63.4287 20.3535C64.4858 20.3535 65.1144 19.5523 65.1144 18.179H65.1144Z" fill="white"/>
<path d="M67.5192 15.0098H68.7634V16.0885H68.7936C68.8777 15.7516 69.0757 15.4539 69.3541 15.2454C69.6324 15.0368 69.9743 14.9302 70.3223 14.9435C70.4726 14.943 70.6225 14.9592 70.7692 14.992V16.2088C70.5794 16.151 70.3814 16.1244 70.1831 16.1302C69.9936 16.1225 69.8046 16.1559 69.6292 16.2279C69.4539 16.2999 69.2962 16.4089 69.167 16.5474C69.0379 16.686 68.9403 16.8507 68.8811 17.0304C68.8218 17.2101 68.8022 17.4004 68.8237 17.5883V21.3474H67.5192L67.5192 15.0098Z" fill="white"/>
<path d="M76.7838 19.486C76.6084 20.6365 75.4848 21.426 74.0473 21.426C72.1985 21.426 71.0509 20.1908 71.0509 18.209C71.0509 16.2211 72.2046 14.9319 73.9924 14.9319C75.7508 14.9319 76.8565 16.1364 76.8565 18.058V18.5037H72.3678V18.5823C72.3471 18.8155 72.3763 19.0505 72.4537 19.2716C72.531 19.4927 72.6547 19.6948 72.8164 19.8646C72.9781 20.0344 73.1741 20.1679 73.3916 20.2563C73.609 20.3447 73.8428 20.386 74.0774 20.3774C74.3857 20.4062 74.6951 20.335 74.9595 20.1744C75.224 20.0138 75.4293 19.7723 75.5451 19.486L76.7838 19.486ZM72.3739 17.5945H75.5513C75.563 17.3848 75.5311 17.1749 75.4576 16.9781C75.3842 16.7812 75.2707 16.6016 75.1243 16.4506C74.9779 16.2996 74.8018 16.1803 74.607 16.1004C74.4123 16.0204 74.203 15.9815 73.9924 15.986C73.78 15.9847 73.5694 16.0254 73.3728 16.1057C73.1763 16.1861 72.9976 16.3044 72.8471 16.454C72.6966 16.6035 72.5773 16.7813 72.4961 16.977C72.4149 17.1728 72.3734 17.3826 72.3739 17.5945V17.5945Z" fill="white"/>
<path d="M26.5526 6.11192C26.8261 6.09235 27.1005 6.13355 27.3561 6.23255C27.6117 6.33155 27.8421 6.48589 28.0306 6.68443C28.2192 6.88297 28.3612 7.12075 28.4464 7.38064C28.5316 7.64053 28.5579 7.91604 28.5234 8.18731C28.5234 9.52168 27.8002 10.2887 26.5526 10.2887H25.0397V6.11192H26.5526ZM25.6902 9.69802H26.4799C26.6754 9.70967 26.8709 9.67771 27.0524 9.60448C27.2339 9.53125 27.3967 9.41859 27.5291 9.27469C27.6614 9.1308 27.7598 8.95929 27.8173 8.77266C27.8748 8.58603 27.8898 8.38896 27.8612 8.19582C27.8877 8.00343 27.8712 7.80759 27.8128 7.62233C27.7545 7.43706 27.6558 7.26696 27.5238 7.12421C27.3917 6.98146 27.2297 6.86959 27.0492 6.79663C26.8688 6.72366 26.6744 6.6914 26.4799 6.70216H25.6902V9.69802Z" fill="white"/>
<path d="M29.2583 8.71115C29.2384 8.50401 29.2622 8.29501 29.328 8.09756C29.3939 7.90011 29.5004 7.71857 29.6408 7.56458C29.7811 7.4106 29.9522 7.28756 30.143 7.20337C30.3339 7.11917 30.5402 7.07568 30.7489 7.07568C30.9576 7.07568 31.164 7.11917 31.3548 7.20337C31.5456 7.28756 31.7167 7.4106 31.8571 7.56458C31.9974 7.71857 32.1039 7.90011 32.1698 8.09756C32.2357 8.29501 32.2594 8.50401 32.2396 8.71115C32.2598 8.9185 32.2363 9.12779 32.1706 9.32556C32.1049 9.52333 31.9985 9.7052 31.8581 9.85949C31.7177 10.0138 31.5465 10.1371 31.3555 10.2214C31.1645 10.3058 30.9578 10.3494 30.7489 10.3494C30.54 10.3494 30.3334 10.3058 30.1424 10.2214C29.9513 10.1371 29.7801 10.0138 29.6398 9.85949C29.4994 9.7052 29.3929 9.52333 29.3272 9.32556C29.2615 9.12779 29.238 8.9185 29.2583 8.71115ZM31.5979 8.71115C31.5979 8.0279 31.2901 7.62834 30.7499 7.62834C30.2077 7.62834 29.9027 8.0279 29.9027 8.71116C29.9027 9.39988 30.2077 9.79636 30.7499 9.79636C31.2901 9.79635 31.5979 9.39713 31.5979 8.71115H31.5979Z" fill="white"/>
<path d="M36.2026 10.2885H35.5555L34.9022 7.96704H34.8529L34.2023 10.2885H33.5614L32.6901 7.13647H33.3228L33.889 9.54167H33.9356L34.5855 7.13647H35.184L35.8338 9.54167H35.8832L36.4467 7.13647H37.0705L36.2026 10.2885Z" fill="white"/>
<path d="M37.8032 7.13646H38.4037V7.63719H38.4503C38.5294 7.45734 38.6628 7.30658 38.8319 7.20592C39.001 7.10525 39.1973 7.0597 39.3936 7.07561C39.5474 7.06408 39.7018 7.08721 39.8455 7.14327C39.9891 7.19934 40.1182 7.28691 40.2233 7.3995C40.3284 7.5121 40.4067 7.64682 40.4525 7.79369C40.4982 7.94057 40.5103 8.09583 40.4877 8.24797V10.2885H39.8639V8.40419C39.8639 7.89764 39.6431 7.64574 39.1818 7.64574C39.0774 7.64089 38.9731 7.65861 38.8762 7.69769C38.7793 7.73677 38.692 7.79629 38.6203 7.87215C38.5486 7.94802 38.4942 8.03845 38.4609 8.13724C38.4275 8.23604 38.416 8.34085 38.427 8.44451V10.2885H37.8032L37.8032 7.13646Z" fill="white"/>
<path d="M41.4817 5.90601H42.1055V10.2885H41.4817V5.90601Z" fill="white"/>
<path d="M42.9727 8.71121C42.9529 8.50405 42.9767 8.29504 43.0425 8.09759C43.1084 7.90013 43.215 7.71858 43.3553 7.56459C43.4957 7.4106 43.6668 7.28756 43.8576 7.20337C44.0485 7.11918 44.2549 7.07568 44.4636 7.07568C44.6722 7.07568 44.8786 7.11918 45.0695 7.20337C45.2603 7.28756 45.4314 7.4106 45.5718 7.56459C45.7121 7.71858 45.8187 7.90013 45.8846 8.09759C45.9504 8.29504 45.9742 8.50405 45.9544 8.71121C45.9746 8.91857 45.9511 9.12786 45.8854 9.32563C45.8197 9.52339 45.7132 9.70526 45.5728 9.85955C45.4324 10.0138 45.2612 10.1371 45.0701 10.2215C44.8791 10.3059 44.6725 10.3494 44.4636 10.3494C44.2546 10.3494 44.048 10.3059 43.857 10.2215C43.666 10.1371 43.4947 10.0138 43.3543 9.85955C43.2139 9.70526 43.1074 9.52339 43.0417 9.32563C42.976 9.12786 42.9525 8.91857 42.9727 8.71121ZM45.3124 8.71121C45.3124 8.02796 45.0046 7.6284 44.4644 7.6284C43.9222 7.6284 43.6171 8.02796 43.6171 8.71121C43.6171 9.39994 43.9222 9.79642 44.4644 9.79642C45.0046 9.79641 45.3124 9.39719 45.3124 8.71121H45.3124Z" fill="white"/>
<path d="M46.6111 9.39716C46.6111 8.82978 47.0347 8.50268 47.7867 8.4562L48.6429 8.40698V8.13491C48.6429 7.802 48.4222 7.61401 47.9958 7.61401C47.6476 7.61401 47.4063 7.7415 47.337 7.96435H46.7331C46.7969 7.42295 47.3076 7.07568 48.0246 7.07568C48.8171 7.07568 49.264 7.46908 49.264 8.13491V10.2886H48.6635V9.8456H48.6142C48.514 10.0045 48.3733 10.134 48.2065 10.221C48.0397 10.3079 47.8527 10.3492 47.6647 10.3405C47.532 10.3543 47.3979 10.3402 47.271 10.2991C47.1441 10.258 47.0273 10.1908 46.928 10.1019C46.8287 10.0131 46.7493 9.90443 46.6947 9.78304C46.6401 9.66165 46.6116 9.5302 46.6111 9.39716ZM48.6429 9.12782V8.8643L47.8711 8.91352C47.4358 8.94257 47.2383 9.09023 47.2383 9.36811C47.2383 9.6518 47.4851 9.81688 47.8245 9.81688C47.9239 9.82692 48.0243 9.81691 48.1198 9.78745C48.2153 9.75798 48.3038 9.70967 48.3802 9.64538C48.4566 9.58109 48.5192 9.50214 48.5643 9.41323C48.6094 9.32432 48.6362 9.22726 48.6429 9.12782Z" fill="white"/>
<path d="M50.0841 8.71114C50.0841 7.71515 50.5976 7.08419 51.3962 7.08419C51.5937 7.07511 51.7898 7.1223 51.9614 7.22022C52.1331 7.31815 52.2732 7.46277 52.3655 7.63719H52.4121V5.90601H53.0359V10.2885H52.4382V9.79052H52.3888C52.2894 9.96377 52.1444 10.1066 51.9694 10.2035C51.7944 10.3005 51.5962 10.3478 51.3962 10.3405C50.5921 10.3405 50.0841 9.70953 50.0841 8.71114ZM50.7285 8.71114C50.7285 9.3797 51.0445 9.782 51.5731 9.782C52.0988 9.782 52.4238 9.3739 52.4238 8.71388C52.4238 8.05694 52.0954 7.64303 51.5731 7.64303C51.0479 7.64303 50.7285 8.04805 50.7285 8.71114H50.7285Z" fill="white"/>
<path d="M55.6167 8.71115C55.5968 8.50401 55.6206 8.29501 55.6864 8.09756C55.7523 7.90011 55.8588 7.71857 55.9992 7.56458C56.1395 7.4106 56.3106 7.28756 56.5014 7.20337C56.6923 7.11917 56.8986 7.07568 57.1073 7.07568C57.316 7.07568 57.5224 7.11917 57.7132 7.20337C57.904 7.28756 58.0751 7.4106 58.2154 7.56458C58.3558 7.71857 58.4623 7.90011 58.5282 8.09756C58.5941 8.29501 58.6178 8.50401 58.598 8.71115C58.6182 8.9185 58.5947 9.12779 58.529 9.32556C58.4633 9.52333 58.3569 9.7052 58.2165 9.85949C58.0761 10.0138 57.9049 10.1371 57.7139 10.2214C57.5228 10.3058 57.3162 10.3494 57.1073 10.3494C56.8984 10.3494 56.6918 10.3058 56.5008 10.2214C56.3097 10.1371 56.1385 10.0138 55.9981 9.85949C55.8578 9.7052 55.7513 9.52333 55.6856 9.32556C55.6199 9.12779 55.5964 8.9185 55.6167 8.71115ZM57.9563 8.71115C57.9563 8.0279 57.6485 7.62834 57.1083 7.62834C56.5661 7.62834 56.2611 8.0279 56.2611 8.71116C56.2611 9.39988 56.5661 9.79636 57.1083 9.79636C57.6485 9.79635 57.9563 9.39713 57.9563 8.71115Z" fill="white"/>
<path d="M59.4349 7.13646H60.0354V7.63719H60.0821C60.1611 7.45734 60.2945 7.30658 60.4636 7.20592C60.6327 7.10525 60.8291 7.0597 61.0253 7.07561C61.1791 7.06408 61.3336 7.08721 61.4772 7.14327C61.6208 7.19934 61.7499 7.28691 61.855 7.3995C61.9601 7.5121 62.0384 7.64682 62.0842 7.79369C62.1299 7.94057 62.142 8.09583 62.1194 8.24797V10.2885H61.4956V8.40419C61.4956 7.89764 61.2749 7.64574 60.8135 7.64574C60.7091 7.64089 60.6048 7.65861 60.5079 7.69769C60.411 7.73677 60.3237 7.79629 60.252 7.87215C60.1804 7.94802 60.126 8.03845 60.0926 8.13724C60.0592 8.23604 60.0477 8.34085 60.0588 8.44451V10.2885H59.4349V7.13646Z" fill="white"/>
<path d="M65.6444 6.35181V7.15093H66.3292V7.6749H65.6444V9.29571C65.6444 9.62588 65.7808 9.77046 66.0913 9.77046C66.1708 9.77021 66.2502 9.76541 66.3292 9.7561V10.2743C66.2172 10.2942 66.1037 10.3049 65.9899 10.3061C65.2961 10.3061 65.0199 10.0627 65.0199 9.45498V7.67488H64.5181V7.1509H65.0199V6.35181H65.6444Z" fill="white"/>
<path d="M67.1813 5.90601H67.7996V7.64302H67.849C67.9319 7.4615 68.0689 7.30988 68.2414 7.20884C68.4139 7.1078 68.6134 7.06224 68.8128 7.07837C68.9658 7.07007 69.1187 7.09554 69.2607 7.15297C69.4027 7.2104 69.5302 7.29837 69.6342 7.41061C69.7382 7.52285 69.816 7.65658 69.8622 7.80228C69.9084 7.94797 69.9218 8.10203 69.9014 8.25347V10.2885H69.2769V8.40693C69.2769 7.90346 69.0418 7.64848 68.601 7.64848C68.4938 7.63971 68.3859 7.65441 68.285 7.69155C68.1841 7.72869 68.0925 7.78737 68.0167 7.86348C67.9409 7.9396 67.8827 8.03131 67.8461 8.13221C67.8096 8.2331 67.7956 8.34075 67.8051 8.4476V10.2885H67.1813L67.1813 5.90601Z" fill="white"/>
<path d="M73.5387 9.43755C73.454 9.72563 73.2703 9.97482 73.0199 10.1415C72.7696 10.3082 72.4684 10.3818 72.1691 10.3495C71.9608 10.3549 71.7539 10.3152 71.5626 10.2329C71.3713 10.1506 71.2002 10.0278 71.0613 9.87304C70.9224 9.71824 70.8189 9.53515 70.7581 9.33648C70.6972 9.1378 70.6804 8.9283 70.7089 8.72251C70.6812 8.51609 70.6982 8.30614 70.759 8.10687C70.8197 7.9076 70.9226 7.72366 71.0608 7.56751C71.199 7.41136 71.3692 7.28664 71.56 7.2018C71.7507 7.11695 71.9575 7.07396 72.1663 7.07574C73.0458 7.07574 73.5764 7.67494 73.5764 8.66474V8.8818H71.3444V8.91666C71.3346 9.03233 71.3492 9.14876 71.3872 9.25849C71.4252 9.36821 71.4857 9.46881 71.565 9.55383C71.6443 9.63885 71.7405 9.70641 71.8474 9.75219C71.9544 9.79797 72.0698 9.82095 72.1862 9.81966C72.3354 9.83752 72.4866 9.81073 72.6205 9.74268C72.7544 9.67464 72.865 9.56842 72.9382 9.43753L73.5387 9.43755ZM71.3444 8.42173H72.9409C72.9488 8.31594 72.9344 8.20968 72.8986 8.10978C72.8628 8.00988 72.8065 7.91854 72.7332 7.84164C72.6599 7.76474 72.5714 7.70398 72.4731 7.66325C72.3749 7.62253 72.2692 7.60275 72.1629 7.60518C72.055 7.60383 71.9479 7.62403 71.848 7.66459C71.748 7.70515 71.6572 7.76525 71.581 7.84135C71.5047 7.91745 71.4445 8.00801 71.4038 8.10769C71.3632 8.20736 71.343 8.31414 71.3444 8.42173H71.3444Z" fill="white"/>
</g>
<defs>
<clipPath id="clip0_116_2163">
<path d="M0 4C0 1.79086 1.79086 0 4 0H80C82.2091 0 84 1.79086 84 4V24C84 26.2091 82.2091 28 80 28H4C1.79086 28 0 26.2091 0 24V4Z" fill="white"/>
</clipPath>
</defs>
</svg>
