<svg width="93" height="28" viewBox="0 0 93 28" fill="none" xmlns="http://www.w3.org/2000/svg">
<path d="M89.5559 27.6547H3.4441C1.5159 27.6547 0 26.1333 0 24.1967V3.45644C0 1.52133 1.5159 0 3.4441 0H89.5559C91.4841 0 93 1.52133 93 3.45644V24.1974C93 26.0641 91.4841 27.6547 89.5559 27.6547Z" fill="black"/>
<path d="M89.5559 0.553C91.14 0.553 92.449 1.86667 92.449 3.45644V24.1974C92.449 25.788 91.14 27.1009 89.5559 27.1009H3.4441C1.86 27.1009 0.551025 25.788 0.551025 24.1974V3.45644C0.551025 1.86667 1.86 0.553 3.4441 0.553H89.5559ZM89.5559 0H3.4441C1.5159 0 0 1.52133 0 3.45644V24.1974C0 26.1333 1.5159 27.6547 3.4441 27.6547H89.5559C91.4841 27.6547 93 26.1333 93 24.1974V3.45644C93 1.58978 91.4841 0 89.5559 0Z" fill="#A6A6A6"/>
<path d="M32.6531 7.05124C32.6531 7.60424 32.5151 8.0888 32.171 8.43413C31.7572 8.84869 31.2751 9.05635 30.6551 9.05635C30.0351 9.05635 29.5531 8.84869 29.14 8.43413C28.7262 8.01958 28.52 7.5358 28.52 6.91358C28.52 6.29135 28.7262 5.8068 29.14 5.39224C29.5531 4.97769 30.0344 4.77002 30.6544 4.77002C30.9303 4.77002 31.2054 4.83924 31.4813 4.97769C31.7564 5.11535 31.9633 5.2538 32.1013 5.46146L31.7564 5.8068C31.4813 5.46146 31.1364 5.32302 30.6544 5.32302C30.2413 5.32302 29.8274 5.46146 29.5523 5.8068C29.2074 6.08369 29.0703 6.49902 29.0703 6.98202C29.0703 7.46658 29.2074 7.88113 29.5523 8.15802C29.8964 8.43413 30.2413 8.6418 30.6544 8.6418C31.1364 8.6418 31.4813 8.50335 31.8254 8.15802C32.0323 7.95035 32.1703 7.67346 32.1703 7.32813H30.6544V6.84435H32.6539V7.05124H32.6531ZM35.8221 5.32302H33.9621V6.63669H35.6841V7.12046H33.9621V8.43413H35.8221V8.98713H33.411V4.83924H35.8221V5.32302ZM38.0951 8.98713H37.5441V5.32302H36.3731V4.83924H39.2662V5.32302H38.0951V8.98713ZM41.2641 8.98713V4.83924H41.8151V8.98713H41.2641ZM44.1572 8.98713H43.6062V5.32302H42.4351V4.83924H45.26V5.32302H44.0882V8.98713H44.1572ZM50.7021 8.43413C50.2882 8.84869 49.8062 9.05635 49.1862 9.05635C48.5662 9.05635 48.0841 8.84869 47.671 8.43413C47.2572 8.01958 47.051 7.5358 47.051 6.91358C47.051 6.29135 47.2572 5.8068 47.671 5.39224C48.0841 4.97769 48.5662 4.77002 49.1862 4.77002C49.8062 4.77002 50.2882 4.97769 50.7021 5.39224C51.1151 5.8068 51.3221 6.29135 51.3221 6.91358C51.3221 7.5358 51.1151 8.01958 50.7021 8.43413ZM48.0841 8.0888C48.36 8.36491 48.7731 8.57258 49.1862 8.57258C49.6 8.57258 50.0131 8.43413 50.2882 8.0888C50.5641 7.81191 50.771 7.39658 50.771 6.91358C50.771 6.42902 50.6331 6.01446 50.2882 5.73758C50.0131 5.46146 49.6 5.2538 49.1862 5.2538C48.7731 5.2538 48.36 5.39224 48.0841 5.73758C47.8082 6.01446 47.6021 6.4298 47.6021 6.91358C47.6021 7.39735 47.74 7.81191 48.0841 8.08802V8.0888ZM52.08 8.98713V4.83924H52.7L54.6972 8.0888V7.25891V4.83924H55.2482V8.98713H54.6972L52.5621 5.59991V6.42902V8.98713H52.08Z" fill="white" stroke="white" stroke-width="0.2"/>
<path d="M46.9131 15.0718C45.26 15.0718 43.951 16.3163 43.951 18.0445C43.951 19.7035 45.26 21.0172 46.9131 21.0172C48.5669 21.0172 49.8759 19.7727 49.8759 18.0445C49.8759 16.247 48.5661 15.0718 46.9131 15.0718ZM46.9131 19.7727C46.0179 19.7727 45.26 19.012 45.26 17.976C45.26 16.9385 46.0179 16.1778 46.9131 16.1778C47.809 16.1778 48.5669 16.8693 48.5669 17.9753C48.5669 19.012 47.809 19.7727 46.9131 19.7727ZM40.5069 15.0718C38.8531 15.0718 37.5441 16.3163 37.5441 18.0445C37.5441 19.7035 38.8538 21.0172 40.5069 21.0172C42.16 21.0172 43.469 19.7727 43.469 18.0445C43.469 16.247 42.16 15.0718 40.5069 15.0718ZM40.5069 19.7727C39.611 19.7727 38.8531 19.012 38.8531 17.976C38.8531 16.9385 39.611 16.1778 40.5069 16.1778C41.402 16.1778 42.16 16.8693 42.16 17.9753C42.16 19.012 41.402 19.7727 40.5069 19.7727ZM32.86 15.9702V17.2146H35.822C35.7531 17.9068 35.4779 18.459 35.1331 18.8052C34.72 19.2197 34.031 19.7035 32.86 19.7035C31 19.7035 29.622 18.2522 29.622 16.3855C29.622 14.5188 31.0697 13.0667 32.86 13.0667C33.8241 13.0667 34.582 13.4813 35.1331 13.9658L36.0297 13.0667C35.2718 12.3753 34.3077 11.8223 32.9297 11.8223C30.4497 11.8223 28.3138 13.8966 28.3138 16.3855C28.3138 18.8744 30.4497 20.9479 32.9297 20.9479C34.3077 20.9479 35.2718 20.5334 36.0987 19.6343C36.9241 18.8052 37.2 17.6299 37.2 16.7308C37.2 16.4547 37.2 16.1778 37.131 15.9702H32.86ZM64.1359 16.9385C63.86 16.2463 63.171 15.0718 61.6559 15.0718C60.14 15.0718 58.9 16.2463 58.9 18.0445C58.9 19.7035 60.14 21.0172 61.7931 21.0172C63.1028 21.0172 63.929 20.188 64.2041 19.7035L63.24 19.012C62.8959 19.4966 62.482 19.8419 61.7931 19.8419C61.1041 19.8419 60.691 19.5658 60.3469 18.9436L64.2731 17.2838L64.1359 16.9385ZM60.14 17.906C60.14 16.8 61.0359 16.1778 61.6559 16.1778C62.1379 16.1778 62.62 16.4547 62.7579 16.8L60.14 17.906ZM56.902 20.741H58.2118V12.0992H56.902V20.7403V20.741ZM54.8359 15.6933C54.491 15.3479 53.94 15.0026 53.251 15.0026C51.8041 15.0026 50.4269 16.3163 50.4269 17.9753C50.4269 19.6343 51.7359 20.8787 53.251 20.8787C53.94 20.8787 54.491 20.5334 54.7669 20.188H54.8359V20.6026C54.8359 21.7086 54.2159 22.3308 53.251 22.3308C52.4931 22.3308 51.942 21.7778 51.8041 21.294L50.702 21.7778C51.0469 22.5385 51.8731 23.506 53.32 23.506C54.8359 23.506 56.0759 22.6077 56.0759 20.4649V15.2103H54.8359V15.694V15.6933ZM53.32 19.7735C52.4241 19.7735 51.6669 19.0128 51.6669 17.9768C51.6669 16.9393 52.4241 16.1786 53.32 16.1786C54.2159 16.1786 54.9041 16.9393 54.9041 17.976C54.9041 19.0128 54.2159 19.7735 53.32 19.7735ZM70.129 12.0999H67.029V20.741H68.3379V17.4923H70.1282C71.5759 17.4923 72.9531 16.4555 72.9531 14.7957C72.9531 13.1367 71.5759 12.0999 70.129 12.0999ZM70.1979 16.2478H68.3379V13.2752H70.1979C71.162 13.2752 71.7131 14.1043 71.7131 14.7265C71.6441 15.4872 71.0931 16.2478 70.1979 16.2478ZM78.12 15.0034C77.1559 15.0034 76.191 15.4179 75.8469 16.317L77.0172 16.8008C77.2931 16.317 77.7069 16.1786 78.189 16.1786C78.8779 16.1786 79.4979 16.5932 79.5669 17.2846V17.3546C79.36 17.2154 78.809 17.0085 78.2572 17.0085C77.0172 17.0085 75.7772 17.6999 75.7772 18.9444C75.7772 20.1188 76.811 20.8795 77.9131 20.8795C78.809 20.8795 79.2228 20.4649 79.5669 20.0504H79.6359V20.7418H80.8759V17.4223C80.7379 15.9009 79.5661 15.0026 78.12 15.0026V15.0034ZM77.982 19.7735C77.569 19.7735 76.949 19.5666 76.949 19.0128C76.949 18.3222 77.7069 18.1145 78.3269 18.1145C78.8772 18.1145 79.1531 18.2529 79.4972 18.3906C79.36 19.2205 78.671 19.7735 77.982 19.7735ZM85.2159 15.211L83.769 18.9444H83.7L82.1841 15.211H80.8069L83.08 20.4649L81.771 23.3684H83.08L86.5931 15.211H85.2159ZM73.642 20.741H74.9518V12.0999H73.642V20.741Z" fill="white"/>
<path d="M7.16411 5.18457C6.95796 5.39224 6.82001 5.73835 6.82001 6.15368V21.4323C6.82001 21.8477 6.95796 22.193 7.16411 22.4007L7.23386 22.4699L15.7759 13.8965V13.758L7.16411 5.18535V5.18457Z" fill="url(#paint0_linear_116_3280)"/>
<path d="M18.6 16.7999L15.7759 13.9649V13.7573L18.6 10.9238L18.669 10.9938L22.0441 12.9289C23.009 13.4819 23.009 14.3811 22.0441 14.9341L18.6 16.7999Z" fill="url(#paint1_linear_116_3280)"/>
<path d="M18.669 16.7308L15.7759 13.8274L7.16412 22.4685C7.509 22.8146 7.99105 22.8146 8.61105 22.5385L18.669 16.7308Z" fill="url(#paint2_linear_116_3280)"/>
<path d="M18.669 10.9231L8.61027 5.18465C7.99105 4.83932 7.50977 4.90932 7.16412 5.25465L15.7759 13.8273L18.669 10.9231Z" fill="url(#paint3_linear_116_3280)"/>
<path opacity="0.2" d="M18.6 16.6616L8.61101 22.3308C8.06076 22.6762 7.57793 22.607 7.23306 22.3308L7.16486 22.4001L7.23306 22.4693C7.57793 22.7454 8.05998 22.8146 8.61101 22.4693L18.6008 16.6616H18.6Z" fill="black"/>
<path opacity="0.12" d="M7.16488 22.3309C6.95795 22.1224 6.88898 21.7779 6.88898 21.3625V21.4325C6.88898 21.8471 7.02693 22.1924 7.23308 22.4001V22.3301H7.16488V22.3309Z" fill="black"/>
<path opacity="0.12" d="M22.0441 14.7257L18.6 16.6616L18.669 16.7308L22.0441 14.7949C22.527 14.5181 22.7339 14.1727 22.7339 13.8274C22.7339 14.1727 22.458 14.4496 22.0441 14.7257Z" fill="black"/>
<path opacity="0.25" d="M8.61105 5.25384L22.0441 12.9282C22.458 13.2051 22.7339 13.4812 22.7339 13.8273C22.7339 13.4812 22.5269 13.1351 22.0441 12.859L8.61105 5.18462C7.64695 4.6324 6.88977 5.11618 6.88977 6.22218V6.2914C6.889 5.18462 7.64695 4.70084 8.61027 5.25384H8.61105Z" fill="white"/>
<defs>
<linearGradient id="paint0_linear_116_3280" x1="12.3038" y1="6.02101" x2="4.93333" y2="13.3649" gradientUnits="userSpaceOnUse">
<stop stop-color="#00A0FF"/>
<stop offset="0.00657" stop-color="#00A1FF"/>
<stop offset="0.2601" stop-color="#00BEFF"/>
<stop offset="0.5122" stop-color="#00D2FF"/>
<stop offset="0.7604" stop-color="#00DFFF"/>
<stop offset="1" stop-color="#00E3FF"/>
</linearGradient>
<linearGradient id="paint1_linear_116_3280" x1="23.3081" y1="13.8283" x2="6.63997" y2="13.8283" gradientUnits="userSpaceOnUse">
<stop stop-color="#FFE000"/>
<stop offset="0.4087" stop-color="#FFBD00"/>
<stop offset="0.7754" stop-color="#FFA500"/>
<stop offset="1" stop-color="#FF9C00"/>
</linearGradient>
<linearGradient id="paint2_linear_116_3280" x1="17.1031" y1="16.5744" x2="4.55083" y2="29.0828" gradientUnits="userSpaceOnUse">
<stop stop-color="#FF3A44"/>
<stop offset="1" stop-color="#C31162"/>
</linearGradient>
<linearGradient id="paint3_linear_116_3280" x1="5.02663" y1="3.92189" x2="10.6127" y2="9.48807" gradientUnits="userSpaceOnUse">
<stop stop-color="#32A071"/>
<stop offset="0.0685" stop-color="#2DA771"/>
<stop offset="0.4762" stop-color="#15CF74"/>
<stop offset="0.8009" stop-color="#06E775"/>
<stop offset="1" stop-color="#00F076"/>
</linearGradient>
</defs>
</svg>
