<svg width="84" height="25" viewBox="0 0 84 25" fill="none" xmlns="http://www.w3.org/2000/svg">
<path d="M80.8892 24.6917H3.1108C1.3692 24.6917 0 23.3333 0 21.6042V3.08611C0 1.35833 1.3692 0 3.1108 0H80.8892C82.6308 0 84 1.35833 84 3.08611V21.6049C84 23.2715 82.6308 24.6917 80.8892 24.6917Z" fill="black"/>
<path d="M80.8892 0.49375C82.32 0.49375 83.5023 1.66667 83.5023 3.08611V21.6049C83.5023 23.025 82.32 24.1972 80.8892 24.1972H3.1108C1.68 24.1972 0.4977 23.025 0.4977 21.6049V3.08611C0.4977 1.66667 1.68 0.49375 3.1108 0.49375H80.8892ZM80.8892 0H3.1108C1.3692 0 0 1.35833 0 3.08611V21.6049C0 23.3333 1.3692 24.6917 3.1108 24.6917H80.8892C82.6308 24.6917 84 23.3333 84 21.6049V3.08611C84 1.41944 82.6308 0 80.8892 0Z" fill="#A6A6A6"/>
<path d="M29.4931 6.29584C29.4931 6.78959 29.3685 7.22223 29.0577 7.53056C28.6839 7.9007 28.2485 8.08612 27.6885 8.08612C27.1285 8.08612 26.6931 7.9007 26.32 7.53056C25.9462 7.16042 25.76 6.72848 25.76 6.17292C25.76 5.61737 25.9462 5.18473 26.32 4.81459C26.6931 4.44445 27.1278 4.25903 27.6878 4.25903C27.937 4.25903 28.1855 4.32084 28.4347 4.44445C28.6832 4.56737 28.8701 4.69098 28.9947 4.87639L28.6832 5.18473C28.4347 4.87639 28.1232 4.75278 27.6878 4.75278C27.3147 4.75278 26.9409 4.87639 26.6924 5.18473C26.3809 5.43195 26.257 5.80278 26.257 6.23403C26.257 6.66667 26.3809 7.03681 26.6924 7.28403C27.0032 7.53056 27.3147 7.71598 27.6878 7.71598C28.1232 7.71598 28.4347 7.59237 28.7455 7.28403C28.9324 7.09862 29.057 6.85139 29.057 6.54306H27.6878V6.11112H29.4938V6.29584H29.4931ZM32.3554 4.75278H30.6754V5.9257H32.2308V6.35764H30.6754V7.53056H32.3554V8.02431H30.1777V4.32084H32.3554V4.75278ZM34.4085 8.02431H33.9108V4.75278H32.8531V4.32084H35.4662V4.75278H34.4085V8.02431ZM37.2708 8.02431V4.32084H37.7685V8.02431H37.2708ZM39.8839 8.02431H39.3862V4.75278H38.3285V4.32084H40.88V4.75278H39.8216V8.02431H39.8839ZM45.7954 7.53056C45.4216 7.9007 44.9862 8.08612 44.4262 8.08612C43.8662 8.08612 43.4308 7.9007 43.0577 7.53056C42.6839 7.16042 42.4977 6.72848 42.4977 6.17292C42.4977 5.61737 42.6839 5.18473 43.0577 4.81459C43.4308 4.44445 43.8662 4.25903 44.4262 4.25903C44.9862 4.25903 45.4216 4.44445 45.7954 4.81459C46.1685 5.18473 46.3554 5.61737 46.3554 6.17292C46.3554 6.72848 46.1685 7.16042 45.7954 7.53056ZM43.4308 7.22223C43.68 7.46876 44.0531 7.65417 44.4262 7.65417C44.8 7.65417 45.1731 7.53056 45.4216 7.22223C45.6708 6.97501 45.8577 6.60417 45.8577 6.17292C45.8577 5.74028 45.7331 5.37014 45.4216 5.12292C45.1731 4.87639 44.8 4.69098 44.4262 4.69098C44.0531 4.69098 43.68 4.81459 43.4308 5.12292C43.1816 5.37014 42.9954 5.74098 42.9954 6.17292C42.9954 6.60487 43.12 6.97501 43.4308 7.22153V7.22223ZM47.04 8.02431V4.32084H47.6L49.4039 7.22223V6.48126V4.32084H49.9016V8.02431H49.4039L47.4754 5.00001V5.74028V8.02431H47.04Z" fill="white" stroke="white" stroke-width="0.2"/>
<path d="M42.3732 13.4571C40.8801 13.4571 39.6978 14.5682 39.6978 16.1112C39.6978 17.5925 40.8801 18.7654 42.3732 18.7654C43.867 18.7654 45.0493 17.6543 45.0493 16.1112C45.0493 14.5064 43.8663 13.4571 42.3732 13.4571ZM42.3732 17.6543C41.5647 17.6543 40.8801 16.9751 40.8801 16.0501C40.8801 15.1237 41.5647 14.4446 42.3732 14.4446C43.1824 14.4446 43.867 15.0619 43.867 16.0494C43.867 16.9751 43.1824 17.6543 42.3732 17.6543ZM36.587 13.4571C35.0932 13.4571 33.9109 14.5682 33.9109 16.1112C33.9109 17.5925 35.0939 18.7654 36.587 18.7654C38.0801 18.7654 39.2624 17.6543 39.2624 16.1112C39.2624 14.5064 38.0801 13.4571 36.587 13.4571ZM36.587 17.6543C35.7778 17.6543 35.0932 16.9751 35.0932 16.0501C35.0932 15.1237 35.7778 14.4446 36.587 14.4446C37.3955 14.4446 38.0801 15.0619 38.0801 16.0494C38.0801 16.9751 37.3955 17.6543 36.587 17.6543ZM29.6801 14.2591V15.3702H32.3555C32.2932 15.9883 32.0447 16.4814 31.7332 16.7904C31.3601 17.1605 30.7378 17.5925 29.6801 17.5925C28.0001 17.5925 26.7555 16.2966 26.7555 14.63C26.7555 12.9633 28.0631 11.6668 29.6801 11.6668C30.5509 11.6668 31.2355 12.0369 31.7332 12.4696L32.5431 11.6668C31.8585 11.0494 30.9877 10.5557 29.7431 10.5557C27.5031 10.5557 25.5739 12.4077 25.5739 14.63C25.5739 16.8522 27.5031 18.7036 29.7431 18.7036C30.9877 18.7036 31.8585 18.3334 32.6054 17.5307C33.3509 16.7904 33.6001 15.7411 33.6001 14.9383C33.6001 14.6918 33.6001 14.4446 33.5378 14.2591H29.6801ZM57.9293 15.1237C57.6801 14.5057 57.0578 13.4571 55.6893 13.4571C54.3201 13.4571 53.2001 14.5057 53.2001 16.1112C53.2001 17.5925 54.3201 18.7654 55.8132 18.7654C56.9962 18.7654 57.7424 18.0251 57.9909 17.5925L57.1201 16.9751C56.8093 17.4077 56.4355 17.7161 55.8132 17.7161C55.1909 17.7161 54.8178 17.4696 54.507 16.914L58.0532 15.4321L57.9293 15.1237ZM54.3201 15.9876C54.3201 15.0001 55.1293 14.4446 55.6893 14.4446C56.1247 14.4446 56.5601 14.6918 56.6847 15.0001L54.3201 15.9876ZM51.3955 18.5189H52.5785V10.8029H51.3955V18.5182V18.5189ZM49.5293 14.0119C49.2178 13.7036 48.7201 13.3952 48.0978 13.3952C46.7909 13.3952 45.547 14.5682 45.547 16.0494C45.547 17.5307 46.7293 18.6418 48.0978 18.6418C48.7201 18.6418 49.2178 18.3334 49.467 18.0251H49.5293V18.3952C49.5293 19.3827 48.9693 19.9383 48.0978 19.9383C47.4132 19.9383 46.9155 19.4446 46.7909 19.0126L45.7955 19.4446C46.107 20.1237 46.8532 20.9876 48.1601 20.9876C49.5293 20.9876 50.6493 20.1855 50.6493 18.2723V13.5807H49.5293V14.0126V14.0119ZM48.1601 17.655C47.3509 17.655 46.667 16.9758 46.667 16.0508C46.667 15.1244 47.3509 14.4452 48.1601 14.4452C48.9693 14.4452 49.5909 15.1244 49.5909 16.0501C49.5909 16.9758 48.9693 17.655 48.1601 17.655ZM63.3424 10.8036H60.5424V18.5189H61.7247V15.6182H63.3417C64.6493 15.6182 65.8932 14.6925 65.8932 13.2105C65.8932 11.7293 64.6493 10.8036 63.3424 10.8036ZM63.4047 14.5071H61.7247V11.8529H63.4047C64.2755 11.8529 64.7732 12.5932 64.7732 13.1487C64.7109 13.8279 64.2132 14.5071 63.4047 14.5071ZM70.5601 13.3959C69.6893 13.3959 68.8178 13.7661 68.507 14.5689L69.564 15.0008C69.8132 14.5689 70.187 14.4452 70.6224 14.4452C71.2447 14.4452 71.8047 14.8154 71.867 15.4327V15.4952C71.6801 15.3709 71.1824 15.1862 70.684 15.1862C69.5639 15.1862 68.444 15.8036 68.444 16.9147C68.444 17.9633 69.3778 18.6425 70.3732 18.6425C71.1824 18.6425 71.5562 18.2723 71.867 17.9022H71.9293V18.5196H73.0493V15.5557C72.9247 14.1973 71.8663 13.3952 70.5601 13.3952V13.3959ZM70.4355 17.655C70.0624 17.655 69.5024 17.4702 69.5024 16.9758C69.5024 16.3591 70.187 16.1737 70.747 16.1737C71.244 16.1737 71.4932 16.2973 71.804 16.4202C71.6801 17.1612 71.0578 17.655 70.4355 17.655ZM76.9693 13.5814L75.6623 16.9147H75.6001L74.2309 13.5814H72.987L75.0401 18.2723L73.8578 20.8647H75.0401L78.2132 13.5814H76.9693ZM66.5155 18.5189H67.6985V10.8036H66.5155V18.5189Z" fill="white"/>
<path d="M6.47083 4.62915C6.28463 4.81457 6.16003 5.12359 6.16003 5.49443V19.1361C6.16003 19.5069 6.28463 19.8153 6.47083 20.0007L6.53383 20.0625L14.2492 12.4076V12.284L6.47083 4.62984V4.62915Z" fill="url(#paint0_linear_116_2190)"/>
<path d="M16.8001 14.9999L14.2493 12.4687V12.2833L16.8001 9.75342L16.8624 9.81592L19.9109 11.5437C20.7824 12.0374 20.7824 12.8402 19.9109 13.334L16.8001 14.9999Z" fill="url(#paint1_linear_116_2190)"/>
<path d="M16.8623 14.9381L14.2492 12.3457L6.47083 20.061C6.78233 20.37 7.21773 20.37 7.77773 20.1235L16.8623 14.9381Z" fill="url(#paint2_linear_116_2190)"/>
<path d="M16.8623 9.75273L7.77703 4.62912C7.21773 4.32078 6.78303 4.38328 6.47083 4.69162L14.2492 12.3458L16.8623 9.75273Z" fill="url(#paint3_linear_116_2190)"/>
<path opacity="0.2" d="M16.7999 14.8762L7.77764 19.938C7.28064 20.2464 6.84454 20.1846 6.53304 19.938L6.47144 19.9998L6.53304 20.0616C6.84454 20.3082 7.27994 20.37 7.77764 20.0616L16.8006 14.8762H16.7999Z" fill="black"/>
<path opacity="0.12" d="M6.47149 19.9381C6.28459 19.752 6.22229 19.4443 6.22229 19.0735V19.136C6.22229 19.5061 6.34689 19.8145 6.53309 19.9999V19.9374H6.47149V19.9381Z" fill="black"/>
<path opacity="0.12" d="M19.9108 13.1478L16.8 14.8763L16.8623 14.9381L19.9108 13.2096C20.3469 12.9624 20.5338 12.654 20.5338 12.3457C20.5338 12.654 20.2846 12.9013 19.9108 13.1478Z" fill="black"/>
<path opacity="0.25" d="M7.77772 4.69085L19.9108 11.5429C20.2846 11.7902 20.5338 12.0367 20.5338 12.3457C20.5338 12.0367 20.3469 11.7277 19.9108 11.4811L7.77772 4.62905C6.90692 4.13599 6.22302 4.56794 6.22302 5.55544V5.61724C6.22232 4.62905 6.90692 4.1971 7.77702 4.69085H7.77772Z" fill="white"/>
<defs>
<linearGradient id="paint0_linear_116_2190" x1="11.1131" y1="5.37597" x2="4.53252" y2="12.009" gradientUnits="userSpaceOnUse">
<stop stop-color="#00A0FF"/>
<stop offset="0.00657" stop-color="#00A1FF"/>
<stop offset="0.2601" stop-color="#00BEFF"/>
<stop offset="0.5122" stop-color="#00D2FF"/>
<stop offset="0.7604" stop-color="#00DFFF"/>
<stop offset="1" stop-color="#00E3FF"/>
</linearGradient>
<linearGradient id="paint1_linear_116_2190" x1="21.0525" y1="12.3467" x2="5.99748" y2="12.3467" gradientUnits="userSpaceOnUse">
<stop stop-color="#FFE000"/>
<stop offset="0.4087" stop-color="#FFBD00"/>
<stop offset="0.7754" stop-color="#FFA500"/>
<stop offset="1" stop-color="#FF9C00"/>
</linearGradient>
<linearGradient id="paint2_linear_116_2190" x1="15.4479" y1="14.7984" x2="4.24088" y2="26.096" gradientUnits="userSpaceOnUse">
<stop stop-color="#FF3A44"/>
<stop offset="1" stop-color="#C31162"/>
</linearGradient>
<linearGradient id="paint3_linear_116_2190" x1="4.54019" y1="3.50166" x2="9.52766" y2="8.52905" gradientUnits="userSpaceOnUse">
<stop stop-color="#32A071"/>
<stop offset="0.0685" stop-color="#2DA771"/>
<stop offset="0.4762" stop-color="#15CF74"/>
<stop offset="0.8009" stop-color="#06E775"/>
<stop offset="1" stop-color="#00F076"/>
</linearGradient>
</defs>
</svg>
