<svg width="199" height="32" viewBox="0 0 199 32" fill="none" xmlns="http://www.w3.org/2000/svg">
<path fill-rule="evenodd" clip-rule="evenodd" d="M58.5121 7.98193H49.0298C48.7385 7.98193 48.4472 8.10985 48.253 8.30174L46.1171 10.4125C45.9229 10.6044 45.7935 10.8922 45.7935 11.1801V23.8447C45.7935 23.9087 45.8582 23.9407 45.8905 23.9407H48.4472C48.5119 23.9407 48.5443 23.8767 48.5443 23.8447V17.8962C48.5443 17.5764 48.8032 17.3525 49.0945 17.3525H57.347C57.4118 17.3525 57.4441 17.2885 57.4441 17.2565V14.73C57.4441 14.666 57.3794 14.6341 57.347 14.6341H49.0945C48.7709 14.6341 48.5443 14.3782 48.5443 14.0904V11.34C48.5443 11.0202 48.8032 10.7963 49.0945 10.7963H58.4797C58.5445 10.7963 58.5768 10.7323 58.5768 10.7003V8.17381C58.6092 8.01391 58.5768 7.98193 58.5121 7.98193Z" fill="white"/>
<path fill-rule="evenodd" clip-rule="evenodd" d="M85.5674 15.1458C85.5674 15.4656 85.3085 15.6895 85.0173 15.6895H77.768C77.4443 15.6895 77.2178 15.4336 77.2178 15.1458V11.276C77.2178 10.9562 77.4767 10.7323 77.768 10.7323H85.0173C85.3409 10.7323 85.5674 10.9882 85.5674 11.276V15.1458ZM88.027 10.4125L85.8911 8.30174C85.6969 8.10985 85.4056 7.98193 85.1144 7.98193H77.6709C77.3796 7.98193 77.0883 8.10985 76.8942 8.30174L74.7582 10.4125C74.564 10.6044 74.4346 10.8922 74.4346 11.1801V23.8447C74.4346 23.9087 74.4993 23.9407 74.5317 23.9407H77.0883C77.1531 23.9407 77.1854 23.8767 77.1854 23.8447V18.9835C77.1854 18.6637 77.4443 18.4399 77.7356 18.4399H84.9849C85.3085 18.4399 85.5351 18.6957 85.5351 18.9835V23.8447C85.5351 23.9087 85.5998 23.9407 85.6322 23.9407H88.1888C88.2536 23.9407 88.2859 23.8767 88.2859 23.8447V11.1801C88.3507 10.8922 88.2212 10.6044 88.027 10.4125Z" fill="white"/>
<path fill-rule="evenodd" clip-rule="evenodd" d="M71.9752 23.9407H64.1758C63.8845 23.9407 63.5932 23.8127 63.399 23.6209L61.2631 21.5101C61.0689 21.3182 60.9395 21.0304 60.9395 20.7425V8.07787C60.9395 8.01391 61.0042 7.98193 61.0365 7.98193H63.5932C63.6579 7.98193 63.6903 8.04589 63.6903 8.07787V20.6466C63.6903 20.9664 63.9492 21.1903 64.2405 21.1903H71.9429C72.0076 21.1903 72.04 21.2542 72.04 21.2862V23.8127C72.0723 23.9087 72.04 23.9407 71.9752 23.9407Z" fill="white"/>
<path fill-rule="evenodd" clip-rule="evenodd" d="M103.497 17.0007L101.361 14.8899C101.167 14.698 100.875 14.5701 100.584 14.5701H94.3705C94.0469 14.5701 93.8203 14.3143 93.8203 14.0264V11.276C93.8203 10.9562 94.0792 10.7323 94.3705 10.7323H103.173C103.238 10.7323 103.27 10.6684 103.27 10.6364V8.10985C103.27 8.04589 103.206 8.01391 103.173 8.01391H94.2734C93.9821 8.01391 93.6909 8.14183 93.4967 8.33372L91.3607 10.4445C91.1666 10.6364 91.0371 10.9242 91.0371 11.2121V14.1543C91.0371 14.4422 91.1666 14.73 91.3607 14.9219L93.4967 17.0327C93.6909 17.2246 93.9821 17.3525 94.2734 17.3525H100.487C100.811 17.3525 101.037 17.6083 101.037 17.8962V20.6466C101.037 20.9664 100.778 21.1903 100.487 21.1903H91.6844C91.6196 21.1903 91.5873 21.2542 91.5873 21.2862V23.8127C91.5873 23.8767 91.652 23.9087 91.6844 23.9087H100.584C100.875 23.9087 101.167 23.7808 101.361 23.5889L103.497 21.4781C103.691 21.2862 103.82 20.9984 103.82 20.7105V17.7682C103.82 17.5124 103.723 17.2246 103.497 17.0007Z" fill="white"/>
<path fill-rule="evenodd" clip-rule="evenodd" d="M135.6 17.0007L133.464 14.8899C133.27 14.698 132.979 14.5701 132.688 14.5701H126.474C126.183 14.5701 125.924 14.3143 125.924 14.0264V11.276C125.924 10.9562 126.183 10.7323 126.474 10.7323H135.277C135.341 10.7323 135.374 10.6684 135.374 10.6364V8.10985C135.374 8.04589 135.309 8.01391 135.277 8.01391H126.377C126.086 8.01391 125.794 8.14183 125.6 8.33372L123.464 10.4445C123.27 10.6364 123.141 10.9242 123.141 11.2121V14.1543C123.141 14.4422 123.27 14.73 123.464 14.9219L125.6 17.0327C125.794 17.2246 126.086 17.3525 126.377 17.3525H132.591C132.914 17.3525 133.141 17.6083 133.141 17.8962V20.6466C133.141 20.9664 132.882 21.1903 132.591 21.1903H123.788C123.723 21.1903 123.691 21.2542 123.691 21.2862V23.8127C123.691 23.8767 123.756 23.9087 123.788 23.9087H132.688C132.979 23.9087 133.27 23.7808 133.464 23.5889L135.6 21.4781C135.795 21.2862 135.924 20.9984 135.924 20.7105V17.7683C135.924 17.5124 135.795 17.2246 135.6 17.0007Z" fill="white"/>
<path fill-rule="evenodd" clip-rule="evenodd" d="M141.361 11.276C141.361 10.9562 141.62 10.7323 141.912 10.7323H150.164C150.229 10.7323 150.261 10.6684 150.261 10.6364V8.10985C150.261 8.04589 150.196 8.01391 150.164 8.01391H141.814C141.523 8.01391 141.232 8.14183 141.038 8.33372L138.902 10.4445C138.708 10.6364 138.578 10.9242 138.578 11.2121V20.7745C138.578 21.0623 138.708 21.3502 138.902 21.5421L141.038 23.6528C141.232 23.8447 141.523 23.9727 141.814 23.9727H150.164C150.229 23.9727 150.261 23.9087 150.261 23.8767V21.3502C150.261 21.2862 150.196 21.2542 150.164 21.2542H141.912C141.588 21.2542 141.361 20.9984 141.361 20.7105V11.276Z" fill="white"/>
<path fill-rule="evenodd" clip-rule="evenodd" d="M164.113 20.6466C164.113 20.9664 163.854 21.1903 163.563 21.1903H156.313C155.99 21.1903 155.763 20.9344 155.763 20.6466V11.276C155.763 10.9562 156.022 10.7323 156.313 10.7323H163.563C163.886 10.7323 164.113 10.9882 164.113 11.276V20.6466ZM166.572 10.4125L164.436 8.30174C164.242 8.10985 163.951 7.98193 163.66 7.98193H156.216C155.925 7.98193 155.634 8.10985 155.44 8.30174L153.304 10.4125C153.109 10.6044 152.98 10.8922 152.98 11.1801V20.7425C152.98 21.0304 153.109 21.3182 153.304 21.5101L155.44 23.6209C155.634 23.8127 155.925 23.9407 156.216 23.9407H163.66C163.951 23.9407 164.242 23.8127 164.436 23.6209L166.572 21.5101C166.767 21.3182 166.896 21.0304 166.896 20.7425V11.1801C166.896 10.8922 166.799 10.6044 166.572 10.4125Z" fill="white"/>
<path fill-rule="evenodd" clip-rule="evenodd" d="M120.326 7.98193H117.769C117.704 7.98193 117.672 8.04589 117.672 8.07787V14.0264C117.672 14.3462 117.413 14.5701 117.122 14.5701H109.872C109.549 14.5701 109.322 14.3143 109.322 14.0264V8.07787C109.322 8.01391 109.257 7.98193 109.225 7.98193H106.668C106.604 7.98193 106.571 8.04589 106.571 8.07787V23.8447C106.571 23.9087 106.636 23.9407 106.668 23.9407H109.225C109.29 23.9407 109.322 23.8767 109.322 23.8447V17.8962C109.322 17.5764 109.581 17.3525 109.872 17.3525H117.122C117.445 17.3525 117.672 17.6083 117.672 17.8962V23.8447C117.672 23.9087 117.737 23.9407 117.769 23.9407H120.326C120.39 23.9407 120.423 23.8767 120.423 23.8447V8.07787C120.423 8.01391 120.39 7.98193 120.326 7.98193Z" fill="white"/>
<path fill-rule="evenodd" clip-rule="evenodd" d="M180.715 14.0264C180.715 14.3462 180.456 14.5701 180.165 14.5701H172.915C172.624 14.5701 172.365 14.3143 172.365 14.0264V11.276C172.365 10.9882 172.624 10.7323 172.915 10.7323H180.165C180.488 10.7323 180.715 10.9882 180.715 11.276V14.0264ZM183.498 11.1801C183.498 10.8922 183.369 10.6044 183.174 10.4125L181.071 8.30174C180.877 8.10985 180.585 7.98193 180.294 7.98193H169.679C169.614 7.98193 169.582 8.04589 169.582 8.07787V23.8447C169.582 23.9087 169.647 23.9407 169.679 23.9407H172.236C172.301 23.9407 172.333 23.8767 172.333 23.8447V17.8962C172.333 17.6083 172.559 17.3845 172.851 17.3525H176.443L180.294 23.9727H183.498L179.647 17.3525H180.262C180.553 17.3525 180.844 17.2246 181.039 17.0327L183.142 14.9219C183.336 14.73 183.466 14.4422 183.466 14.1543V11.1801H183.498Z" fill="white"/>
<path fill-rule="evenodd" clip-rule="evenodd" d="M189.55 10.7323H198.903C198.968 10.7323 199 10.6684 199 10.6364V8.10985C199 8.04589 198.935 8.01391 198.903 8.01391H189.453C189.162 8.01391 188.871 8.14183 188.676 8.33372L186.54 10.4445C186.346 10.6364 186.217 10.9242 186.217 11.2121V20.7745C186.217 21.0623 186.346 21.3502 186.54 21.5421L188.676 23.6528C188.871 23.8447 189.162 23.9727 189.453 23.9727H198.903C198.968 23.9727 199 23.9087 199 23.8767V21.3502C199 21.2862 198.935 21.2542 198.903 21.2542H189.55C189.227 21.2542 189 20.9984 189 20.7105V17.9601C189 17.6403 189.259 17.4165 189.55 17.4165H196.12C196.185 17.4165 196.217 17.3525 196.217 17.3205V14.794C196.217 14.73 196.152 14.698 196.12 14.698H189.55C189.227 14.698 189 14.4422 189 14.1543V11.4039C189 10.9562 189.227 10.7323 189.55 10.7323Z" fill="white"/>
<path fill-rule="evenodd" clip-rule="evenodd" d="M6.82859 17.6403C6.66677 16.8088 6.63441 16.0093 6.7315 15.2097L0.064726 14.6021C-0.064726 15.9773 0 17.3525 0.258904 18.7597C0.517808 20.1669 0.938526 21.5101 1.52106 22.7574L7.57294 19.975C7.24931 19.2394 6.9904 18.4718 6.82859 17.6403Z" fill="white"/>
<path fill-rule="evenodd" clip-rule="evenodd" d="M8.93234 22.0218L3.78662 26.2753C5.30768 28.0663 7.2171 29.5054 9.35306 30.4969L12.1686 24.5163C10.9388 23.9087 9.80614 23.0772 8.93234 22.0218Z" fill="white"/>
<path fill-rule="evenodd" clip-rule="evenodd" d="M17.8322 25.2519C16.9907 25.4118 16.1493 25.4438 15.3726 25.3479L14.79 31.936C16.1816 32.064 17.5733 32 18.9972 31.7441C19.4503 31.6482 19.9358 31.5523 20.3888 31.4563L18.6412 25.06C18.3823 25.124 18.0911 25.1879 17.8322 25.2519Z" fill="white"/>
<path fill-rule="evenodd" clip-rule="evenodd" d="M14.5309 6.76663C15.6636 6.57474 16.8286 6.57474 17.8966 6.76663L20.7769 0.658172C18.4468 -0.0134381 15.9225 -0.205327 13.3658 0.242414C6.99028 1.36176 2.13584 6.06304 0.550049 11.8837L7.02265 13.6107C7.96117 10.1886 10.7768 7.43824 14.5309 6.76663Z" fill="white"/>
<path fill-rule="evenodd" clip-rule="evenodd" d="M22.2656 23.2051L26.5699 28.2582C27.6379 27.3627 28.6088 26.3073 29.4178 25.1879L23.9485 21.3822C23.4631 22.0538 22.9129 22.6614 22.2656 23.2051Z" fill="white"/>
<path fill-rule="evenodd" clip-rule="evenodd" d="M32.2981 14.6021L25.6313 15.1778C25.6961 15.7214 25.6961 16.2651 25.6313 16.8088L32.2981 17.3845C32.3952 16.489 32.3952 15.5615 32.2981 14.6021Z" fill="white"/>
<path fill-rule="evenodd" clip-rule="evenodd" d="M26.2254 0.020874L19.356 14.8803L49.0876 0.020874H26.2254Z" fill="#FF0046"/>
</svg>
