<svg width="10" height="6" viewBox="0 0 10 6" fill="none" xmlns="http://www.w3.org/2000/svg">
<path d="M5 2.26735L1.30065 5.69883C1.14221 5.85381 0.948437 5.93113 0.719342 5.93113C0.877756 6.08609 0.490269 5.93113 0.719342 5.93113L0.237576 5.46048C0.0792068 5.30574 -2.23643e-07 5.11635 -2.1386e-07 4.89255C-2.04078e-07 4.66876 0.0792069 4.47946 0.237576 4.32447L4.4187 0.23228C4.57714 0.0774267 4.77089 2.08542e-07 5.00001 2.18557e-07C5.22913 2.28572e-07 5.42273 0.0774048 5.58123 0.23228L9.76236 4.32445C9.92079 4.47944 10 4.66871 10 4.89253C10 5.11635 9.92079 5.30571 9.76236 5.46046C9.60401 5.61544 9.41133 5.69276 9.18429 5.69276C8.95742 5.69276 8.76258 5.61542 8.59989 5.46046L5 2.26735Z" fill="white"/>
</svg>
