<svg width="14" height="12" viewBox="0 0 14 12" fill="none" xmlns="http://www.w3.org/2000/svg">
<g clip-path="url(#clip0_144_60)">
<path d="M6.99994 6.31186L3.16358 3.09485C2.99928 2.94955 2.79832 2.87707 2.56074 2.87707L2.06113 3.3183C1.8969 3.46337 1.81476 3.64093 1.81476 3.85073C1.81476 4.06054 1.8969 4.23801 2.06113 4.38331L6.39712 8.21974C6.56142 8.36491 6.76235 8.4375 6.99995 8.4375C7.23756 8.4375 7.43833 8.36493 7.6027 8.21974L11.9387 4.38333C12.103 4.23803 12.1851 4.06058 12.1851 3.85075C12.1851 3.64093 12.103 3.46339 11.9387 3.31832C11.7745 3.17302 11.5747 3.10054 11.3392 3.10054C11.1039 3.10054 10.9019 3.17304 10.7332 3.31832L6.99994 6.31186Z" fill="#555E61"/>
</g>
<defs>
<clipPath id="clip0_144_60">
<rect width="12" height="14" fill="white" transform="translate(0 12) rotate(-90)"/>
</clipPath>
</defs>
</svg>
