<svg width="12" height="8" viewBox="0 0 12 8" fill="none" xmlns="http://www.w3.org/2000/svg">
<path d="M6 4.73266L2.30065 1.30118C2.14221 1.1462 1.94844 1.06888 1.71934 1.06888C1.87776 0.913918 1.49027 1.06888 1.71934 1.06888L1.23758 1.53953C1.07921 1.69427 1 1.88366 1 2.10746C1 2.33125 1.07921 2.52055 1.23758 2.67554L5.4187 6.76773C5.57714 6.92258 5.77089 7.00001 6.00001 7.00001C6.22913 7.00001 6.42273 6.9226 6.58123 6.76773L10.7624 2.67556C10.9208 2.52057 11 2.33129 11 2.10748C11 1.88366 10.9208 1.69429 10.7624 1.53955C10.604 1.38457 10.4113 1.30725 10.1843 1.30725C9.95742 1.30725 9.76258 1.38459 9.59989 1.53955L6 4.73266Z" fill="white"/>
</svg>
