<svg width="10" height="6" viewBox="0 0 10 6" fill="none" xmlns="http://www.w3.org/2000/svg">
<path d="M5 3.73265L1.30065 0.301174C1.14221 0.146189 0.948437 0.0688729 0.719342 0.0688729C0.877756 -0.0860901 0.490269 0.0688729 0.719342 0.0688729L0.237576 0.539521C0.0792068 0.694264 -2.23643e-07 0.883654 -2.1386e-07 1.10745C-2.04078e-07 1.33124 0.0792069 1.52054 0.237576 1.67553L4.4187 5.76772C4.57714 5.92257 4.77089 6 5.00001 6C5.22913 6 5.42273 5.9226 5.58123 5.76772L9.76236 1.67555C9.92079 1.52056 10 1.33129 10 1.10747C10 0.883653 9.92079 0.694286 9.76236 0.539543C9.60401 0.384558 9.41133 0.307242 9.18429 0.307242C8.95742 0.307242 8.76258 0.38458 8.59989 0.539543L5 3.73265Z" fill="#555E61"/>
</svg>
