<svg width="12" height="12" viewBox="0 0 12 12" fill="none" xmlns="http://www.w3.org/2000/svg">
<path d="M6.73265 6L3.30117 9.69935C3.14619 9.85779 3.06887 10.0516 3.06887 10.2807C2.91391 10.1222 3.06887 10.5097 3.06887 10.2807L3.53952 10.7624C3.69426 10.9208 3.88365 11 4.10745 11C4.33124 11 4.52054 10.9208 4.67553 10.7624L8.76772 6.5813C8.92257 6.42286 9 6.22911 9 5.99999C9 5.77087 8.92259 5.57727 8.76772 5.41877L4.67555 1.23764C4.52056 1.07921 4.33128 1 4.10747 1C3.88365 1 3.69429 1.07921 3.53954 1.23764C3.38456 1.39599 3.30724 1.58867 3.30724 1.81571C3.30724 2.04258 3.38458 2.23742 3.53954 2.40011L6.73265 6Z" fill="#555E61"/>
</svg>
