<svg width="14" height="14" viewBox="0 0 14 14" fill="none" xmlns="http://www.w3.org/2000/svg">
<path fill-rule="evenodd" clip-rule="evenodd" d="M6.66575 0.0155201C6.46546 0.0521523 6.26891 0.122412 6.03027 0.242716C5.81663 0.350427 5.74713 0.417436 2.92457 3.23738C-0.217332 6.37641 -0.0287623 6.16921 0.0199441 6.42894C0.0443655 6.55916 0.214851 6.72691 0.348131 6.75194C0.537794 6.7875 0.62499 6.74748 0.869751 6.5125L1.09954 6.29189L1.09995 9.1298C1.10039 12.2414 1.09684 12.169 1.26276 12.4576C1.35829 12.6237 1.58584 12.8495 1.75575 12.9467C2.04122 13.1099 1.7899 13.1029 7.08815 13.095L11.9308 13.0877L12.1188 13.0082C12.3438 12.9131 12.6141 12.6735 12.7353 12.4617C12.9035 12.1677 12.8997 12.2458 12.9001 9.1298L12.9005 6.29189L13.1303 6.5125C13.3751 6.74748 13.4623 6.7875 13.6519 6.75194C13.7852 6.72691 13.9557 6.55916 13.9801 6.42894C14.0288 6.16937 14.2158 6.37499 11.0891 3.25008C7.95888 0.121701 8.10864 0.257932 7.61942 0.0940293C7.42544 0.0290147 7.31639 0.0102479 7.08539 0.00210739C6.92575 -0.00351993 6.73694 0.00251717 6.66575 0.0155201ZM7.28795 0.905729C7.3775 0.929057 7.50608 0.979676 7.57369 1.01825C7.64875 1.06105 8.53932 1.92971 9.86149 3.24975L12.0264 5.41116L12.0263 8.66211C12.0263 11.7032 12.0232 11.9191 11.9785 12.0068C11.9523 12.0583 11.8961 12.1259 11.8537 12.157C11.7786 12.2121 11.7422 12.2138 10.481 12.2212L9.18539 12.2288V10.4401C9.18539 9.23976 9.17545 8.60376 9.15521 8.50662C9.04845 7.9947 8.61012 7.55637 8.0982 7.44961C7.9031 7.40894 6.09695 7.40894 5.90185 7.44961C5.38993 7.55637 4.9516 7.9947 4.84485 8.50662C4.82461 8.60376 4.81466 9.23956 4.81466 10.4393V12.2272L3.55125 12.2272C2.14281 12.2271 2.16321 12.2297 2.0357 12.0388L1.97369 11.946V8.67858V5.41116L4.13857 3.24975C5.46803 1.92242 6.35114 1.06114 6.42703 1.01784C6.68493 0.870681 6.99721 0.830033 7.28795 0.905729ZM8.00382 8.33559C8.13926 8.39219 8.20018 8.45043 8.25986 8.5804C8.3069 8.68282 8.31007 8.80066 8.31065 10.4585L8.31125 12.2272H7.00003H5.68881V10.4644C5.68881 8.93981 5.69449 8.68798 5.73082 8.601C5.78742 8.46556 5.84566 8.40465 5.97564 8.34496C6.07464 8.2995 6.17049 8.29472 6.99407 8.29418C7.75144 8.29368 7.92004 8.3006 8.00382 8.33559Z" fill="#555E61"/>
</svg>
