<svg width="20" height="20" viewBox="0 0 20 20" fill="none" xmlns="http://www.w3.org/2000/svg">
<path fill-rule="evenodd" clip-rule="evenodd" d="M20 4C20 1.79086 18.2091 0 16 0H4C1.79086 0 0 1.79086 0 4V16C0 18.2091 1.79086 20 4 20H10L20 10V4Z" fill="#00A83F"/>
<path d="M16 20C18.2091 20 20 18.2091 20 16V10L10 20H16Z" fill="#F89400"/>
<path d="M6.98975 15L4.52051 5.69434H5.78369L7.19922 11.7944C7.35156 12.4334 7.48275 13.0682 7.59277 13.6987C7.82975 12.7043 7.9694 12.1309 8.01172 11.9785L9.78271 5.69434H11.2681L12.6011 10.4043C12.9354 11.5723 13.1766 12.6704 13.3247 13.6987C13.4432 13.1105 13.5977 12.4355 13.7881 11.6738L15.248 5.69434H16.4858L13.9341 15H12.7471L10.7856 7.90967C10.6206 7.31722 10.5233 6.95329 10.4937 6.81787C10.3963 7.24528 10.3053 7.60921 10.2207 7.90967L8.24658 15H6.98975Z" fill="white"/>
</svg>
