<svg width="20" height="20" viewBox="0 0 20 20" fill="none" xmlns="http://www.w3.org/2000/svg">
<path d="M0 4C0 1.79086 1.79086 0 4 0H16C18.2091 0 20 1.79086 20 4V16C20 18.2091 18.2091 20 16 20H4C1.79086 20 0 18.2091 0 16V4Z" fill="#00A83F"/>
<path d="M6.98975 15L4.52051 5.69434H5.78369L7.19922 11.7944C7.35156 12.4334 7.48275 13.0682 7.59277 13.6987C7.82975 12.7043 7.9694 12.1309 8.01172 11.9785L9.78271 5.69434H11.2681L12.6011 10.4043C12.9354 11.5723 13.1766 12.6704 13.3247 13.6987C13.4432 13.1105 13.5977 12.4355 13.7881 11.6738L15.248 5.69434H16.4858L13.9341 15H12.7471L10.7856 7.90967C10.6206 7.31722 10.5233 6.95329 10.4937 6.81787C10.3963 7.24528 10.3053 7.60921 10.2207 7.90967L8.24658 15H6.98975Z" fill="white"/>
</svg>
